<?xml version="1.0" standalone="no"?>
<!DOCTYPE svg PUBLIC "-//W3C//DTD SVG 1.1//EN" "http://www.w3.org/Graphics/SVG/1.1/DTD/svg11.dtd" >
<svg xmlns="http://www.w3.org/2000/svg" xmlns:xlink="http://www.w3.org/1999/xlink" version="1.1">
<metadata></metadata>
<defs>
<font id="afta_serifregular" horiz-adv-x="1198" >
<font-face units-per-em="2048" ascent="1638" descent="-410" />
<missing-glyph horiz-adv-x="577" />
<glyph unicode="&#xfb01;" horiz-adv-x="1282" d="M63 0v41l164 33v897h-161v88h161v190q0 211 109 320.5t280 109.5q71 0 137.5 -15.5t101.5 -30.5t96 -46q13 -7 20 -10v72h180v-183h-207q-60 51 -147.5 89t-161.5 38q-76 0 -133.5 -34t-87.5 -88.5t-44 -112.5t-14 -117v-182h795v-983l160 -35v-41h-463v41l162 33v897 h-652v-895l170 -35v-41h-465z" />
<glyph unicode="&#xfb02;" horiz-adv-x="1273" d="M61 973v90h181v182q0 128 27.5 216t81.5 136.5t122 68.5t162 20q77 0 144 -9t136 -35t117.5 -68t79.5 -112t31 -162v-1218q24 -7 81 -19.5t81 -19.5v-43h-463v43l159 39v1218q0 94 -49.5 158.5t-126 92.5t-174.5 28q-80 -2 -135 -28t-84 -73.5t-41 -103t-12 -129.5v-182 h260v-90h-260v-891l166 -39v-43h-465v43l162 39v891h-181z" />
<glyph horiz-adv-x="0" />
<glyph horiz-adv-x="682" />
<glyph unicode=" "  horiz-adv-x="577" />
<glyph unicode="&#x09;" horiz-adv-x="577" />
<glyph unicode="&#xa0;" horiz-adv-x="577" />
<glyph unicode="!" horiz-adv-x="581" d="M213 -2v172h174v-172h-174zM221 1059v436h146v-436l-52 -602h-43z" />
<glyph unicode="&#x22;" horiz-adv-x="931" d="M289 1010v485h94v-485h-94zM600 1010v485h94v-485h-94z" />
<glyph unicode="#" horiz-adv-x="1216" d="M115 459v63h250l69 418h-266v64h276l74 450h96l-77 -450h344l73 450h97l-78 -450h194v-64h-206l-70 -418h211v-63h-217q-18 -81 -40 -232t-38 -225h-92l73 457h-344q-38 -258 -73 -457h-95l76 457h-237zM457 522h342q11 74 34 209.5t35 208.5h-342q-12 -77 -35 -209 t-34 -209z" />
<glyph unicode="$" horiz-adv-x="1239" d="M141 82v133q230 -151 490 -158v660q-248 72 -369 174.5t-121 263.5q0 139 129.5 249t360.5 134v141h63v-141q294 -17 439 -96v-103q-205 97 -439 113v-629q42 -15 69.5 -25.5t68.5 -27t69 -31t63.5 -34t60 -40t51.5 -45.5t44.5 -53t32.5 -60.5t22 -70.5t7 -80 q0 -74 -30 -136.5t-77.5 -104.5t-113.5 -74.5t-131 -50.5t-136 -29v-205h-63v203q-173 7 -299 43t-191 80zM305 1153q0 -190 326 -315v614q-136 -27 -231 -107t-95 -192zM694 55q134 33 230 119t96 182q0 30 -3.5 54.5t-22 65.5t-51 75.5t-96.5 76t-153 77.5v-650z" />
<glyph unicode="%" horiz-adv-x="2088" d="M229 1075q6 204 83 308t249 104q76 0 133.5 -23t92 -60t57 -93t31.5 -111t12 -125q-2 -75 -15 -135t-32 -100.5t-46.5 -71t-54.5 -47t-60 -26t-59.5 -12.5t-56.5 -3q-44 0 -81.5 6t-86 30t-82 64t-58 116t-26.5 179zM313 1069q0 -101 19.5 -172t56 -107.5t78 -51.5 t94.5 -15q119 0 181.5 79.5t62.5 272.5q0 105 -18 178.5t-52 113t-76 56.5t-98 17q-58 0 -101 -17t-77.5 -57.5t-52 -114.5t-17.5 -182zM502 -39l1151 1555h104l-1151 -1555h-104zM1319 375q5 204 81.5 306.5t248.5 102.5q75 0 132.5 -23t92 -60t57 -91.5t31 -110 t10.5 -124.5q-1 -75 -12.5 -135.5t-28.5 -101t-43.5 -70t-52.5 -46t-60 -26t-61.5 -12t-62.5 -2.5q-43 0 -76 4.5t-73.5 17t-70 39.5t-56 68.5t-41 109t-15.5 154.5zM1401 367q0 -102 17 -172.5t51 -110t77.5 -56t102.5 -16.5q122 0 182.5 83t60.5 280q0 209 -56 291 t-187 82q-124 0 -186 -84.5t-62 -296.5z" />
<glyph unicode="&#x26;" horiz-adv-x="1554" d="M94 520q0 235 107.5 350t349.5 152q-45 192 -45 235q0 56 19 99t49.5 68t75 40.5t88.5 21t98 5.5q158 -2 240.5 -56t82.5 -178q0 -29 -16 -135q215 -37 310 -152t95 -343q0 -161 -60.5 -286.5t-195.5 -225.5q141 -62 226 -62q169 0 319 84v-108q-112 -62 -326 -62 q-90 0 -164 19t-161 73q-228 -102 -516 -96q-158 0 -270 37t-179 110.5t-97 173.5t-30 236zM229 528q0 -138 26 -231t83.5 -147.5t137.5 -77.5t198 -23q184 0 426 68q-324 311 -537 848q-54 -13 -90.5 -24.5t-74.5 -29.5t-62 -39.5t-46.5 -53t-34.5 -72t-19 -95t-7 -123.5z M598 1225q0 -99 74.5 -271.5t163.5 -326.5q60 117 88.5 175.5t67 146.5t54 153.5t15.5 122.5q0 45 -12 77.5t-31.5 51t-50.5 29.5t-61 14.5t-70 3.5q-58 0 -97 -6t-73.5 -24t-51 -54t-16.5 -92zM868 539q101 -155 157 -222t146 -141q121 58 180.5 168t59.5 291q0 86 -12 148 t-32.5 104.5t-58.5 74t-79.5 51.5t-106.5 42q-74 -219 -254 -516z" />
<glyph unicode="'" horiz-adv-x="585" d="M266 1010v485h92v-485h-92z" />
<glyph unicode="(" horiz-adv-x="645" d="M133 551q0 260 115.5 522t296.5 469h73q-49 -76 -99.5 -173t-107.5 -231.5t-92.5 -290t-35.5 -296.5q0 -405 321 -987h-59q-32 37 -71.5 88t-104 155.5t-113.5 211.5t-86 251.5t-37 280.5z" />
<glyph unicode=")" horiz-adv-x="630" d="M45 1542h74q188 -232 300.5 -485t112.5 -506q0 -471 -403 -977q-6 -7 -8 -10h-64q59 115 96 189t86 188t76.5 203.5t47.5 198t20 208.5q0 116 -26 244.5t-62.5 232.5t-87 212.5t-87.5 174t-75 127.5z" />
<glyph unicode="*" horiz-adv-x="673" d="M106 1114l218 109l-218 108l23 43l209 -110v233h51v-233l205 110l22 -43l-215 -108l215 -109l-22 -43l-205 111v-236h-51v236l-209 -111z" />
<glyph unicode="+" horiz-adv-x="1228" d="M121 475v86h465v481h92v-481h483v-86h-483v-473h-92v473h-465z" />
<glyph unicode="," horiz-adv-x="569" d="M188 -311q32 3 57 15.5t40.5 27.5t26.5 43t16.5 47.5t8 58t3 57.5t0.5 62h-123v172h178q17 -136 17 -203q0 -89 -18.5 -156.5t-51 -107t-70.5 -61t-84 -27.5v72z" />
<glyph unicode="-" horiz-adv-x="815" d="M137 518v105h576v-105h-576z" />
<glyph unicode="." horiz-adv-x="555" d="M217 -2v172h174v-172h-174z" />
<glyph unicode="/" horiz-adv-x="710" d="M12 -41l623 1583h96l-622 -1581q-16 0 -50.5 -1t-46.5 -1z" />
<glyph unicode="0" horiz-adv-x="1372" d="M135 713q0 135 18.5 246t49 189.5t76 138t95.5 96t111 59t117.5 31t120.5 8.5q55 0 105 -7t109 -28t108 -55t96.5 -93t80 -137.5t52.5 -193t20 -254.5q0 -135 -21.5 -247t-56 -187.5t-84 -133.5t-100 -91t-109 -53.5t-105.5 -27t-95 -6.5q-50 0 -98 6.5t-108.5 27 t-112 53.5t-102.5 91t-87 133.5t-58 187.5t-22 247zM276 698q0 -148 23.5 -262t63 -186t98 -117.5t122 -63.5t140.5 -18q95 0 171.5 36t136.5 112t93 206.5t33 307.5q0 149 -22 265.5t-60.5 193t-94 126t-118.5 70.5t-139 21q-83 0 -149 -21.5t-123 -71.5t-95 -128.5 t-59 -197t-21 -272.5z" />
<glyph unicode="1" horiz-adv-x="886" d="M231 1333v64q24 18 73 46.5t73 45.5h164v-1407q24 -7 80.5 -19.5t80.5 -19.5v-43h-458v43l162 39v1296q-98 -10 -175 -45z" />
<glyph unicode="2" horiz-adv-x="1230" d="M88 0q2 100 22 185t58.5 153t84.5 123.5t112.5 105.5t128.5 88t147 82q137 70 204.5 163.5t67.5 199.5q0 119 -83 201.5t-248 89.5q-211 0 -353 -179q-2 -9 -11 -59t-17 -78h-43l-19 217q14 14 31.5 30t63.5 48t93 55.5t115 42.5t136 19q117 0 208 -31t146.5 -84.5 t83.5 -122.5t28 -149q0 -307 -366 -484q-88 -45 -156.5 -93t-128.5 -111t-94.5 -142.5t-40.5 -171.5h729l39 164h45l21 -262h-1004z" />
<glyph unicode="3" horiz-adv-x="1310" d="M106 41l17 233h43l35 -155q231 -70 395 -70q102 0 184.5 26.5t132 67t83 91t46.5 95.5t13 85q0 53 -26.5 107.5t-76 102t-130.5 77.5t-179 30h-174v98h174q94 0 162 24t104 66t52 91t16 108q0 110 -81.5 191.5t-240.5 81.5q-162 0 -413 -107q-4 -26 -17.5 -75t-17.5 -68 q-13 0 -25 -2t-18 -2l-14 217q126 63 244 99t261 36q76 0 144 -12t129 -38.5t105.5 -65.5t70.5 -96.5t26 -127.5q0 -140 -86.5 -236t-216.5 -108q178 -25 289 -130t111 -261q0 -90 -43 -171t-120.5 -143t-196 -98.5t-259.5 -36.5q-358 0 -502 76z" />
<glyph unicode="4" horiz-adv-x="1425" d="M96 412v127q136 160 402.5 475.5t402.5 474.5h127v-989h334v-88h-334v-328l168 -41v-43h-471q0 9 -1 24t-1 19l166 39l2 330h-795zM164 500h727v880q-570 -685 -727 -880z" />
<glyph unicode="5" horiz-adv-x="1310" d="M111 111l16 227h43l35 -148q104 -46 221 -79t211 -33q92 0 167.5 28t124.5 72.5t83 102.5t48.5 116t14.5 115q0 77 -24.5 145t-74.5 125t-137 90t-202 33q-153 0 -381 -86q-16 11 -54.5 32.5t-56.5 33.5q67 429 95 579h974q-3 -44 -12 -120.5t-12 -120.5h-41l-39 161 h-748q-8 -70 -29 -225t-30 -244q162 74 326 74q170 0 303.5 -55t212 -164.5t78.5 -257.5q0 -162 -77 -279t-208 -175t-301 -58q-140 0 -263 24t-175.5 45t-87.5 42z" />
<glyph unicode="6" horiz-adv-x="1273" d="M127 729q0 165 30 295.5t82.5 216.5t127 142.5t159 81t183.5 24.5q41 0 79 -3.5t77 -13t65.5 -16t67.5 -23.5t59 -24.5t64.5 -29t60.5 -27.5l-15 -217h-43l-34 147q-200 104 -381 104q-88 0 -163 -34.5t-126.5 -92t-87.5 -132.5t-53 -155.5t-17 -162.5q0 -113 6 -242 q21 94 94 174.5t169 125t188 44.5q237 0 374 -148q111 -119 117 -288q6 -171 -98 -303q-127 -161 -361 -187q-43 -5 -87 -5q-129 0 -223.5 36t-167 120t-109.5 232t-37 361zM293 449q0 -66 25 -133.5t70.5 -125t117 -93.5t156.5 -36q200 0 310 138q88 112 84 264 q-3 149 -93 248q-93 102 -244 102q-61 0 -117.5 -19.5t-98 -50.5t-77.5 -70t-60 -76.5t-41 -71t-24.5 -53.5t-7.5 -23z" />
<glyph unicode="7" horiz-adv-x="1296" d="M193 1454h1005q0 -88 -21.5 -145t-72.5 -113l-336 -399q-117 -168 -117 -367v-428h-139v428q0 94 22 175t48.5 128.5t70.5 106.5q54 71 106 138t87 110.5t108 134t125 155.5h-737q-3 -35 -12.5 -115t-12.5 -118h-43z" />
<glyph unicode="8" horiz-adv-x="1255" d="M100 399q0 72 27 140t67.5 117t91.5 91t93.5 66t79.5 39q-33 14 -66 30.5t-77 46.5t-76 62.5t-55 77.5t-23 92q0 156 125.5 241t359.5 85q118 0 211 -27.5t150 -75t86.5 -108t29.5 -129.5q0 -110 -70 -173.5t-218 -117.5q80 -37 142 -78.5t116 -97t83 -127t29 -154.5 q0 -140 -74.5 -239.5t-199.5 -147t-287 -47.5q-545 0 -545 434zM238 399q0 -71 24.5 -129t64.5 -96.5t94 -64.5t110.5 -37t115.5 -11q112 0 205 39.5t151 118t58 180.5q0 94 -43.5 173.5t-115 131t-156.5 82.5t-173 37q-157 -48 -246 -157.5t-89 -266.5zM309 1180 q0 -35 21 -68t61.5 -60.5t78 -48.5t93.5 -41t82.5 -29t69.5 -22q11 2 38.5 13.5t67.5 35t75.5 51.5t61 68.5t25.5 81.5q0 54 -21.5 95.5t-55 66.5t-79.5 41.5t-90 22.5t-92 6q-56 0 -112 -12t-107.5 -35.5t-84 -66.5t-32.5 -99z" />
<glyph unicode="9" horiz-adv-x="1273" d="M119 991q-6 170 98 303q126 161 360 188q44 5 89 5q102 0 182 -22t148 -75t112.5 -138t69 -214.5t24.5 -300.5q0 -165 -30 -295.5t-82 -216.5t-126.5 -142.5t-159 -81t-183.5 -24.5q-48 0 -96.5 7t-79 13t-83 25.5t-68 26t-77.5 35t-70 31.5l15 217h43l35 -148 q200 -104 381 -104q88 0 163 34.5t126 92t87.5 132.5t53 155.5t16.5 162.5q0 113 -6 242q-22 -96 -94.5 -176.5t-168 -124t-188.5 -43.5q-237 0 -374 148q-110 119 -117 288zM273 1002q5 -149 95 -247q93 -102 242 -102q61 0 117.5 19.5t98 51t77.5 70t60 76.5t41 71.5 t24.5 53.5t7.5 23q0 66 -25 133.5t-70 124.5t-116.5 93t-156.5 36q-202 0 -311 -140q-88 -111 -84 -263z" />
<glyph unicode=":" horiz-adv-x="616" d="M240 -2v172h172v-172h-172zM240 887v172h172v-172h-172z" />
<glyph unicode=";" horiz-adv-x="628" d="M211 -311q27 3 49 11t37.5 24t26.5 30.5t17.5 41.5t10.5 44.5t5.5 52t2 52t0.5 55.5h-120v172h176q16 -128 16 -203q0 -88 -18.5 -155t-51.5 -106.5t-70 -61t-81 -27.5v70zM240 887v172h172v-172h-172z" />
<glyph unicode="&#x3c;" horiz-adv-x="1271" d="M121 459v110l1087 478v-109l-1036 -426l1055 -412v-104z" />
<glyph unicode="=" horiz-adv-x="1224" d="M121 262v84h1026v-84h-1026zM121 686v88h1026v-88h-1026z" />
<glyph unicode="&#x3e;" horiz-adv-x="1265" d="M92 -4v104l1055 412l-1036 426v109l1087 -478v-110z" />
<glyph unicode="?" horiz-adv-x="1230" d="M176 1468q181 66 393 66q148 0 258.5 -35.5t179 -118t68.5 -206.5q0 -62 -19 -116t-57 -99.5t-71.5 -75.5t-85.5 -70q-6 -5 -36.5 -31t-39.5 -34.5t-35.5 -32.5t-36.5 -37t-30.5 -37t-29.5 -42t-21 -43t-18 -50.5t-9 -52.5h-82q6 79 28.5 145t59.5 115.5t69.5 81.5 t77.5 67q41 34 57.5 48.5t49 48.5t46 60.5t26 67.5t12.5 87q0 118 -89 187t-272 69q-58 0 -143.5 -16t-149.5 -38q24 -273 25 -284h-43zM469 0v172h174v-172h-174z" />
<glyph unicode="@" horiz-adv-x="1673" d="M100 750q0 238 102.5 418.5t281.5 276t407 95.5q127 0 240 -25t208.5 -76.5t165 -126t108 -179t38.5 -230.5q0 -69 -11.5 -133.5t-40.5 -127.5t-73 -109t-113.5 -74.5t-157.5 -28.5q-105 0 -168.5 40t-74.5 101q-27 -47 -82 -80.5t-123 -33.5q-238 0 -238 291 q0 130 73.5 229.5t172.5 99.5q57 0 122.5 -32.5t113.5 -116.5l32 133l103 -37q-41 -267 -41 -383q0 -125 123 -125q75 0 127.5 56t76 145t23.5 203q0 126 -52.5 228t-140 165t-194.5 96t-223 33q-27 0 -48 -1t-69.5 -7t-88 -17.5t-94 -36t-96.5 -57.5t-86.5 -86.5t-74 -120 t-48 -160t-18.5 -204.5q0 -144 30.5 -258t74 -185.5t114 -123t126 -75.5t135.5 -37t117.5 -14.5t95.5 -1.5h14q152 0 323.5 54.5t323.5 140.5v-174q-314 -115 -723 -115q-200 0 -354 57.5t-250.5 162t-144.5 248t-44 319.5zM705 733q0 -86 37 -129t104 -43q39 0 86 29.5 t86 73.5l12 145q-36 89 -106 139q-62 30 -110.5 7.5t-78.5 -84t-30 -138.5z" />
<glyph unicode="A" horiz-adv-x="1378" d="M-80 0q0 10 1 22t1 19l144 35l516 1308q-65 14 -164 41v41h409l490 -1390q26 -4 76 -17.5t69 -17.5q0 -13 1 -24t1 -17h-473q0 8 1 22t1 21l172 39l-147 475h-610l-193 -473q29 -8 92.5 -23.5t79.5 -19.5q0 -13 1 -24t1 -17h-469zM426 643h565l-274 743z" />
<glyph unicode="B" horiz-adv-x="1443" d="M53 0v45l158 37l4 1304l-162 37v43h633q146 0 252.5 -28t167 -79t88 -114t27.5 -141q0 -257 -334 -305q95 -6 177.5 -32t150 -73t106.5 -122.5t39 -172.5q0 -64 -19.5 -123t-65 -114t-112.5 -96t-169 -66t-228 -27q-91 4 -236.5 8t-260 8.5t-216.5 10.5zM346 68l309 -15 q23 -1 45 -1q130 0 224 20q108 24 167 74.5t83 115t24 154.5q0 157 -118.5 246.5t-313.5 89.5h-420v-684zM346 842h324q210 0 302.5 61.5t92.5 200.5q0 274 -377 274h-342v-536z" />
<glyph unicode="C" horiz-adv-x="1433" d="M141 725q0 170 49 311t142 244t236.5 160t324.5 57q201 0 393 -65q-3 -48 -11 -132t-11 -126h-39l-35 174q-15 5 -57 18t-53.5 16.5t-42.5 11.5t-47.5 10t-43 4.5t-53.5 2.5q-41 0 -89.5 -10t-106 -33.5t-112.5 -59t-107 -90.5t-91 -123t-63.5 -162.5t-26.5 -203.5 q7 -128 38.5 -233.5t75.5 -173t103 -118.5t111.5 -77.5t111 -42t93 -19.5t63.5 -4q200 0 407 160v-141q-60 -40 -173.5 -79.5t-233.5 -43.5q-182 0 -327.5 60.5t-237 166t-139.5 243.5t-48 298z" />
<glyph unicode="D" horiz-adv-x="1437" d="M49 0v43l160 37v1306l-160 35v43h526q114 0 214.5 -25.5t176 -69.5t137.5 -103.5t103.5 -126t70 -139t41.5 -141.5t13 -134q0 -67 -10.5 -134t-36 -139.5t-64 -137t-99 -122.5t-136 -100t-180 -67t-227.5 -25h-529zM344 152q0 -50 6 -57t47 -7h183q77 0 154 18.5 t157 65.5t140.5 117t99 183t38.5 253q0 135 -38.5 247t-99.5 185t-140 124t-157.5 73t-153.5 22h-50q-114 0 -144 -2t-42 -14v-1208z" />
<glyph unicode="E" horiz-adv-x="1204" d="M55 0v43l160 37l2 1304l-162 37v43h1012l-23 -286h-38l-35 200h-625v-590h533v-88h-533v-612h692l35 158h39v-246h-1057z" />
<glyph unicode="F" horiz-adv-x="1226" d="M59 0v45l158 37v1300l-158 37v45h1102q-3 -50 -7 -143.5t-7 -144.5h-45l-35 198h-719v-583h506v-103h-506v-610l162 -37v-41h-451z" />
<glyph unicode="G" horiz-adv-x="1667" d="M129 735q0 349 202.5 556.5t561.5 207.5q309 0 534 -76l-20 -247h-43l-35 165q-83 36 -186 51t-254 15q-171 -9 -303 -84q-303 -181 -303 -600q0 -107 18 -197.5t45.5 -154.5t70.5 -115t83.5 -83t94.5 -55t92.5 -33.5t89.5 -16.5t73 -6.5t55 -0.5h8q302 0 494 125v357 q-51 10 -86 18t-51.5 12t-22.5 5v38h293v-540q-351 -117 -627 -117h-16q-768 0 -768 776z" />
<glyph unicode="H" horiz-adv-x="1576" d="M55 0v43l154 37v1306q-23 4 -77 17t-77 18v45h461v-43l-160 -37v-604h926v602l-164 41v41h457v-43l-158 -34l-2 -1307q119 -25 160 -37v-45h-457v43l160 37l4 610h-926v-612l160 -35v-43h-461z" />
<glyph unicode="I" horiz-adv-x="571" d="M80 0v43l153 37v1306q-23 4 -75.5 17t-75.5 18v45h438v-43l-155 -37v-1308l157 -35v-43h-442z" />
<glyph unicode="J" horiz-adv-x="598" d="M102 1423v43h457v-43l-162 -37l-6 -1433q0 -311 -246 -373v76q121 105 121 297v1433z" />
<glyph unicode="K" horiz-adv-x="1357" d="M53 0v43l160 37l2 1304q-89 18 -162 39v43h455v-43l-158 -34l-2 -781l649 768l-196 47v43h485v-43l-137 -32l-418 -492l545 -823q26 -4 75 -17.5t68 -17.5v-41h-446v41l153 31l-471 719l-307 -345v-366q119 -25 160 -37v-43h-455z" />
<glyph unicode="L" horiz-adv-x="1136" d="M55 43l160 37l2 1306l-162 37v43h455v-43l-158 -34l-2 -1250q0 -35 6 -40t45 -5h611q4 33 17.5 104t17.5 97h43l14 -295h-1047q0 8 -1 22t-1 21z" />
<glyph unicode="M" horiz-adv-x="1835" d="M45 1423v43h365l493 -1099q23 -47 54 -47t51 47l483 1099h346v-43l-160 -37v-1304l166 -39l-2 -43h-461v43l162 37l4 1237l-514 -1145h-151l-541 1149v-1243l168 -35v-43h-461v43l160 37v1306z" />
<glyph unicode="N" horiz-adv-x="1517" d="M45 0q0 8 1 22t1 21l158 37l2 1306l-158 37v43h332l838 -1308v1308h292v-43l-159 -37v-1308l161 -35v-43h-317l-854 1337l-2 -1255q89 -18 162 -39q0 -13 1 -25t1 -18h-459z" />
<glyph unicode="O" horiz-adv-x="1728" d="M121 729q0 372 199.5 567t568.5 201q397 -6 583.5 -196.5t186.5 -571.5q0 -133 -26 -247t-85 -211.5t-147 -166t-218.5 -107t-293.5 -38.5q-207 0 -356.5 54.5t-238 158.5t-130 241t-43.5 316zM276 731q0 -110 17.5 -203t44.5 -158.5t69.5 -118.5t81.5 -85.5t92 -56 t90 -34.5t86.5 -17t70.5 -7t52 0h9q33 0 63 1.5t98.5 15t124 37t123 74.5t113.5 120.5t77.5 181t31.5 250.5q0 109 -19 201.5t-48.5 157.5t-74.5 117t-87.5 84.5t-98 56.5t-95 35t-88.5 17t-70 6.5t-48 0.5h-4q-26 0 -47.5 -1t-68.5 -7t-86.5 -17.5t-92.5 -35.5t-94.5 -56.5 t-84.5 -85t-71.5 -117t-47 -156.5t-18.5 -200z" />
<glyph unicode="P" horiz-adv-x="1302" d="M53 0v43l162 37l2 1306l-160 37v43h662q115 0 207 -25.5t149.5 -67.5t96 -99t54 -115t15.5 -121q0 -59 -15.5 -115t-54 -112t-96 -97t-149.5 -67t-207 -26h-371v-539q85 -17 164 -39v-43h-459zM348 713h371q84 0 150.5 25.5t105.5 62t64.5 83t34.5 84t9 68.5 q0 47 -9 90.5t-34.5 90.5t-64.5 81t-105 56t-151 22h-371v-663z" />
<glyph unicode="Q" horiz-adv-x="1722" d="M121 723q0 372 199.5 567t568.5 201q397 -6 583.5 -196.5t186.5 -571.5q0 -160 -39.5 -290t-123.5 -234.5t-226 -168t-336 -77.5v-68q0 -71 26 -127t67.5 -88t83.5 -49.5t83 -21.5v-23q-93 5 -163.5 31.5t-107.5 61t-59.5 79t-28.5 76.5t-6 63v66q-154 13 -273.5 56 t-200 109.5t-133 160.5t-76 202.5t-25.5 241.5zM276 725q0 -110 17.5 -203t44.5 -158.5t69.5 -118.5t81.5 -85.5t92 -56t90 -34.5t86.5 -17t70.5 -6.5t52 -0.5h9q24 0 44.5 1t68.5 7t88 17.5t95 35.5t99 56.5t89.5 85t75.5 118t49.5 158t19.5 201.5t-19 201.5t-48 157.5 t-74 117t-87 84.5t-97 56.5t-94.5 34.5t-89 17t-70 7t-48.5 0.5h-4q-26 0 -47.5 -1t-68.5 -7t-86.5 -17.5t-92.5 -35.5t-94.5 -56.5t-84.5 -85t-71.5 -117t-47 -156.5t-18.5 -200z" />
<glyph unicode="R" horiz-adv-x="1396" d="M49 0v43l160 37l2 1306l-158 37v43h652q236 0 358.5 -105t122.5 -267q0 -65 -20 -118.5t-51 -88t-76 -61t-86 -41t-91 -25.5q47 -6 85 -28t66 -60.5t44 -68t37 -77.5l180 -450l147 -35q0 -13 1 -24t1 -17h-456v43l176 39l-205 498q-37 72 -77.5 102.5t-110.5 30.5h-410 v-635l33 -8q40 -11 131 -27q0 -13 1 -25t1 -18h-457zM340 813h365q78 0 139 18t98.5 46.5t61.5 67t33.5 75.5t9.5 76q0 51 -18.5 98.5t-56.5 89.5t-107 67t-160 25h-365v-563z" />
<glyph unicode="S" horiz-adv-x="1245" d="M133 315h41l37 -147q187 -111 389 -111q167 0 282 84.5t115 206.5q0 25 -1.5 44t-10 49t-23 54.5t-42.5 54.5t-66.5 54.5t-97.5 49.5t-133 44q-247 71 -366.5 168t-119.5 262q0 72 33.5 138t95.5 117.5t160.5 82.5t218.5 31q191 0 294 -21.5t167 -62.5l-14 -217h-45 l-35 147q-102 44 -186.5 59t-182.5 15q-145 0 -245.5 -80t-100.5 -211q0 -66 20 -114.5t64.5 -83t98 -58t136.5 -47.5q60 -17 102 -31t103 -38.5t103 -49t88.5 -61.5t75 -78t47 -97t18.5 -120q0 -67 -20.5 -123t-54 -95t-80.5 -70t-96.5 -49.5t-105 -30.5t-103 -16.5 t-93.5 -4.5q-288 0 -463 119q0 41 -2 118.5t-2 118.5z" />
<glyph unicode="T" horiz-adv-x="1302" d="M47 1466h1247l-22 -245h-43l-37 157h-444v-1298l159 -37v-43h-456v43l161 37v1298h-462l-39 -157h-43z" />
<glyph unicode="U" horiz-adv-x="1509" d="M37 1421v45h461v-43l-162 -34l-4 -768q0 -42 1 -72.5t10 -93t24.5 -108.5t48.5 -102t78.5 -92.5t118 -61.5t163.5 -25q70 0 128.5 15.5t100.5 39t75 61t54 72t36 82.5t22 82t11 80.5t4.5 68t0.5 54.5v765l-161 35v45h456l-2 -43l-158 -34l-6 -768q0 -183 -23 -281 q-85 -371 -538 -371q-119 0 -212.5 26t-153 62.5t-102 100t-62.5 113.5t-31 130t-12.5 122.5t-1.5 115.5v747z" />
<glyph unicode="V" horiz-adv-x="1439" d="M-47 1425v41h438v-43l-155 -32l464 -1317l467 1323l-135 28v41h434v-41l-147 -34l-520 -1391h-195l-508 1391z" />
<glyph unicode="W" horiz-adv-x="2189" d="M-53 1425v41h432v-43l-143 -30l485 -1315l342 1388h127l328 -1392l483 1319l-146 30v43h431v-41l-142 -34l-504 -1391h-206l-310 1321l-315 -1321h-207l-510 1391z" />
<glyph unicode="X" horiz-adv-x="1449" d="M8 0v43l139 33l525 680l-494 635l-139 34v41h457v-43l-156 -37l399 -530l408 537l-154 32v41h457v-41l-139 -34l-486 -635l510 -680q26 -4 74.5 -17.5t67.5 -17.5v-41h-457v43l168 41l-449 573l-444 -577l170 -39v-41h-457z" />
<glyph unicode="Y" horiz-adv-x="1454" d="M-14 1423v43h434v-41l-158 -30l479 -762l488 762l-146 30v41h428v-41l-139 -34l-559 -846v-465l158 -37v-43h-455v43l158 37v465l-547 846z" />
<glyph unicode="Z" horiz-adv-x="1382" d="M92 0v102l1084 1276h-983l-37 -155h-39l-25 243h1243l2 -94l-1075 -1270h977l74 193l22 -295h-1243z" />
<glyph unicode="[" horiz-adv-x="663" d="M184 -436v1972h478v-92h-324v-1790h324v-90h-478z" />
<glyph unicode="\" horiz-adv-x="710" d="M12 1542h97l622 -1583q-12 0 -46 1t-50 1z" />
<glyph unicode="]" horiz-adv-x="663" d="M31 -340h323v1784h-323v92h475v-1970h-475v94z" />
<glyph unicode="^" horiz-adv-x="1232" d="M131 590l471 874h111l456 -891h-102l-408 850l-421 -835z" />
<glyph unicode="_" horiz-adv-x="1024" d="M20 -246h1027v-39h-1027v39z" />
<glyph unicode="`" horiz-adv-x="454" d="M8 1538h160l102 -229h-86z" />
<glyph unicode="a" horiz-adv-x="1044" d="M94 305q0 65 16.5 118.5t53 99t103.5 70.5t159 25q168 0 219.5 8t93.5 48q0 88 -8.5 145t-23.5 93t-46 54t-66 23.5t-95 5.5q-136 0 -242 -34q-25 -123 -33 -158h-47q-3 39 -7 110.5t-7 110.5q143 70 348 70q52 0 95.5 -7.5t85.5 -25t74 -49t56.5 -76t37.5 -109.5 t13 -147v-596l164 -39v-45h-241l-64 131q-45 -38 -85 -65t-110 -52.5t-141 -25.5q-148 0 -225.5 81t-77.5 236zM231 303q0 -112 65.5 -169.5t164.5 -57.5q147 0 280 127l4 360q-59 -15 -114 -23t-87 -9t-91 -1h-32.5t-32.5 -2t-34 -6t-31 -11.5t-30 -18.5t-24.5 -28.5 t-20.5 -39.5t-12 -53t-5 -68z" />
<glyph unicode="b" horiz-adv-x="1140" d="M16 1583v45h301v-840q9 43 42 94.5t82.5 99t121 79t146.5 31.5q360 0 360 -529q0 -307 -120 -447.5t-380 -140.5q-65 0 -139.5 13.5t-123.5 27.5t-128 39v1491q-25 4 -82 18t-80 19zM313 129q158 -70 285 -70q69 0 123.5 21t89 60.5t58 86t35 107.5t16 113.5t4.5 115.5 q0 436 -224 436q-75 0 -140.5 -39t-109.5 -97.5t-76 -129t-46.5 -132.5t-14.5 -107v-365z" />
<glyph unicode="c" horiz-adv-x="1083" d="M127 541q0 153 37.5 261t111 171t172 91t232.5 28q182 0 336 -86q-3 -35 -7.5 -107.5t-7.5 -107.5h-43l-36 147q-135 59 -242 59q-70 0 -125.5 -9.5t-111.5 -39t-93 -78t-60.5 -131t-23.5 -194.5q0 -116 22 -202.5t59 -139t91.5 -85t112 -44t129.5 -11.5q94 0 192.5 27 t165.5 62l2 -119q-104 -33 -184.5 -48.5t-175.5 -15.5q-278 0 -415.5 140t-137.5 432z" />
<glyph unicode="d" horiz-adv-x="1206" d="M125 541q0 119 23.5 215.5t64 161t95.5 107.5t116 62t129 19q157 0 344 -70v512l-162 37q0 13 -1 26t-1 19h305l-2 -1552l168 -35v-43h-297l-20 186q-31 -93 -124 -148.5t-222 -55.5q-87 0 -159 29.5t-131 92.5t-92.5 174.5t-33.5 262.5zM274 543q0 -50 3.5 -96 t12.5 -103t28.5 -102.5t47.5 -85.5t73 -62t102 -22q180 0 267 100.5t87 288.5v459l-29 14q-180 78 -313 78q-46 0 -84.5 -13.5t-65.5 -33.5t-48.5 -53.5t-35 -61.5t-23 -71.5t-13.5 -69.5t-6.5 -68t-2.5 -55v-43z" />
<glyph unicode="e" horiz-adv-x="1107" d="M109 506q0 283 118 433.5t363 150.5q420 0 420 -543v-8l-766 2q0 -71 2 -118.5t9.5 -103.5t22 -92t39.5 -72.5t61.5 -57t89.5 -33.5t122 -13q77 0 145 30t105 64t63 72l90 -72q-151 -178 -403 -178q-134 0 -228 37t-148 110t-78.5 168t-26.5 224zM260 625l629 2 q-2 78 -19.5 142.5t-52 116.5t-92.5 80.5t-135 28.5q-69 0 -125.5 -20.5t-94 -55t-63 -82.5t-36.5 -100.5t-11 -111.5z" />
<glyph unicode="f" horiz-adv-x="643" d="M18 973v88h177v94q0 128 26 215t80 136.5t126 70t175 20.5q97 0 225 -63l-14 -221h-41l-35 157q-86 21 -135 21q-58 0 -102 -9t-73.5 -21t-49 -39t-30 -47.5t-15.5 -63.5t-5.5 -69t-0.5 -81v-6v-94h264v-88h-264v-895l168 -35v-43h-467v43l163 39l5 891h-177z" />
<glyph unicode="g" horiz-adv-x="1202" d="M100 535q0 279 110.5 418t369.5 139q105 0 179.5 -23.5t118.5 -62t83 -101.5l10 154h231v-49l-139 -54v-979q0 -27 -1 -48t-10.5 -71t-26 -88.5t-52.5 -86.5t-85.5 -80t-129.5 -54t-180 -22q-255 0 -414 190q14 12 27 22.5t28.5 22.5t26.5 21q38 -40 96 -82 q118 -82 236 -82q64 0 117 12.5t87.5 33.5t62.5 48.5t42 57.5t25 61t12 58.5t3.5 50.5t-1.5 36v154q-60 -96 -134.5 -131t-191.5 -35q-109 0 -195.5 30.5t-143 82.5t-93.5 125.5t-52.5 155.5t-15.5 176zM242 535q0 -93 12.5 -167.5t31.5 -123.5t49.5 -84.5t59.5 -54.5 t68 -30t68.5 -13.5t68.5 -2.5q27 0 43.5 0.5t46.5 5t50 12.5t47 24.5t45.5 40t38.5 60t31.5 82.5t19.5 110t8 141q0 75 -8 137t-20 106.5t-32.5 80t-39 58t-47.5 38.5t-50 24t-53.5 12.5t-50.5 5t-49 0.5h-6q-41 0 -63.5 -1t-63 -10t-64 -25.5t-54 -50t-47 -81.5t-28.5 -123 t-12 -171zM1202 1010l2 2z" />
<glyph unicode="h" horiz-adv-x="1228" d="M18 1585v45h299l2 -788q46 95 167 171.5t245 76.5q153 0 240.5 -113t87.5 -338l-4 -557l168 -37v-45h-461v43l162 39l4 571q0 159 -67 246.5t-191 87.5q-139 0 -245 -94t-106 -217v-594q25 -7 84 -19.5t84 -19.5v-43h-464v45l163 33v1470q-25 4 -83.5 18t-84.5 19z" />
<glyph unicode="i" horiz-adv-x="489" d="M20 0v43l164 39v895l-164 39v43h304v-977l163 -39v-43h-467zM150 1454v174h174v-174h-174z" />
<glyph unicode="j" horiz-adv-x="493" d="M20 1016v43h304v-1094q0 -90 -21 -162t-50.5 -113.5t-69.5 -71t-70 -41t-60 -17.5v92q67 64 99 134t32 159v1032zM152 1454v174h172v-174h-172z" />
<glyph unicode="k" horiz-adv-x="1140" d="M20 0v43l162 39v1464q-100 21 -162 39v43h306v-809q165 309 450 309q129 0 207 -82t78 -204q0 -211 -318 -430l256 -336l142 -33v-43h-465v43l160 33l-211 274l-125 -53v106q436 193 436 416q0 93 -56 149t-143 56q-86 0 -181 -58.5t-161 -155.5t-69 -196v-532 q24 -7 80.5 -19.5t80.5 -19.5v-43h-467z" />
<glyph unicode="l" horiz-adv-x="489" d="M23 0v43l161 39v1464q-96 20 -161 39v43h303v-1546l161 -39v-43h-464z" />
<glyph unicode="m" horiz-adv-x="1726" d="M16 0v43l164 39v895l-164 39v43h287l25 -205q48 98 149.5 168t202.5 70q85 0 151 -56t89 -186q51 100 159.5 171t223.5 71q130 0 190.5 -103t60.5 -325l5 -580l167 -43v-41h-296v676q0 62 -4 106t-15.5 86t-32.5 67.5t-55.5 40.5t-83.5 15q-75 0 -133.5 -29t-93 -78 t-52.5 -107t-18 -122v-573l160 -39v-43h-299v655q0 174 -40.5 255t-144.5 81q-74 0 -134 -30t-95.5 -79.5t-54.5 -108t-19 -118.5v-571l170 -43v-41h-469z" />
<glyph unicode="n" horiz-adv-x="1218" d="M14 1014v45h287l27 -209q63 105 169 172.5t230 67.5q153 0 240.5 -113t87.5 -338v-557l164 -37v-45h-295v653q0 159 -67 246.5t-191 87.5q-139 0 -245 -94t-106 -217v-594l170 -39v-43h-467v45l164 33v899q-18 4 -77.5 17.5t-90.5 19.5z" />
<glyph unicode="o" d="M123 535q0 277 113 417t374 140q113 0 201 -29t144.5 -79t93.5 -122t52 -152t15 -175q0 -144 -24 -246.5t-79.5 -177t-150.5 -110.5t-233 -36q-109 0 -196 30.5t-144.5 82.5t-95 125.5t-54 155.5t-16.5 176zM268 535q0 -93 12.5 -167.5t31.5 -123.5t50 -84.5t60 -54.5 t68.5 -30t69.5 -13.5t69 -2.5q50 0 81.5 3.5t84 28.5t83.5 71.5t55.5 142t24.5 230.5q0 75 -8 137t-19.5 106.5t-32 80t-39 58t-47.5 38.5t-49.5 24t-53 12.5t-50.5 5t-49 0.5h-6q-43 0 -65.5 -1t-63.5 -10t-65 -25.5t-54.5 -50t-47 -81.5t-28.5 -123t-12 -171z" />
<glyph unicode="p" horiz-adv-x="1169" d="M18 1014v45h297v-242q58 120 165 196.5t259 76.5q66 0 117 -17t93 -58.5t69 -108.5t42 -169.5t15 -240.5q0 -118 -24.5 -210t-65 -149.5t-97.5 -94t-117 -51t-130 -14.5q-156 0 -326 64v-401l160 -31v-45h-452v47l157 31v1335q-19 4 -76.5 17.5t-85.5 19.5zM315 152 q55 -25 86 -37.5t87 -24.5t116 -12q82 0 144.5 26.5t99 68t58.5 99t29 111.5q5 42 5 87v26q0 118 -11.5 206.5t-38 157t-73 104t-112.5 35.5q-74 0 -140 -38t-110 -96t-77 -127t-48 -132t-15 -110v-344z" />
<glyph unicode="q" horiz-adv-x="1159" d="M125 530q0 289 118.5 419t383.5 130q78 0 162 -19t118 -32t90 -37v-1345l162 -35v-45h-459v45l162 33v569q-19 -35 -53 -74.5t-82 -79.5t-113.5 -66t-132.5 -26q-187 0 -271.5 146t-84.5 417zM256 530q0 -61 3 -110.5t10.5 -106.5t23.5 -99.5t40 -79t61.5 -56t86.5 -19.5 q73 0 137 27.5t107.5 71.5t75 98t46.5 106.5t15 98.5v457q-148 79 -284 79q-80 0 -140 -29t-94 -73t-54.5 -109t-27 -124.5t-6.5 -131.5z" />
<glyph unicode="r" horiz-adv-x="794" d="M10 1016v43h271l51 -223q23 125 103.5 189.5t170.5 64.5q102 0 166 -29l-14 -246h-45l-37 162q-31 6 -70 6q-33 0 -57.5 -2.5t-57.5 -13.5t-56.5 -30t-48.5 -54.5t-41 -84.5t-26 -122.5t-10 -165.5v-432q79 -15 156 -35v-43h-447v43l152 35v899z" />
<glyph unicode="s" horiz-adv-x="1007" d="M119 76q0 1 1.5 13.5t5 69t7.5 152.5h43l37 -147q192 -92 326 -92q60 0 106.5 10t86 33t60.5 66.5t21 105.5q0 37 -21.5 68.5t-56 54.5t-87.5 43.5t-105 34.5t-119 28q-140 29 -215.5 107t-75.5 186q0 30 8 61.5t32 71t61.5 69t105 50t154.5 20.5q188 0 391 -88 q-3 -38 -4 -107.5t-4 -105.5h-46l-36 150q-177 65 -299 65q-47 0 -82.5 -7.5t-69 -26t-51 -57t-17.5 -95.5q0 -39 11 -67.5t27.5 -47t51.5 -34t66.5 -25t87.5 -23.5q227 -51 330.5 -124t103.5 -195q0 -152 -111 -238t-302 -86q-135 0 -249.5 35.5t-172.5 71.5z" />
<glyph unicode="t" horiz-adv-x="720" d="M20 971v88h205q5 33 19.5 145.5t23.5 169.5h92v-315h275v-88h-275v-686q0 -58 3 -92t9.5 -59.5t21.5 -37t34.5 -16t52.5 -4.5q71 0 148 35v-109q-105 -27 -199 -27q-52 0 -87.5 9.5t-63 35t-40 73t-12.5 120.5v758h-207z" />
<glyph unicode="u" horiz-adv-x="1216" d="M16 1016v43h293v-676q0 -166 52.5 -247t181.5 -81q92 0 177.5 42.5t143.5 127t58 191.5v567l-226 35v41h359v-977l164 -39v-43h-287l-25 199q-56 -108 -172 -172t-229 -64q-71 0 -129 23t-105 72.5t-73.5 136.5t-26.5 206v576z" />
<glyph unicode="v" horiz-adv-x="1132" d="M-29 1012v47h459v-43l-170 -41l318 -901l315 903l-141 37v45h432v-41l-152 -35l-377 -983h-161l-371 983z" />
<glyph unicode="w" horiz-adv-x="1626" d="M-59 1012v47h462v-47l-178 -31l215 -881l289 959h158l293 -959l215 881l-178 31v47h462v-47l-157 -29l-252 -983h-158l-303 987l-301 -987h-158l-252 983z" />
<glyph unicode="x" horiz-adv-x="1118" d="M12 0v41l146 35l329 456l-297 451l-139 35v41h398v-43l-117 -41l227 -357l238 359l-113 39v43h403v-41l-143 -35l-301 -448l328 -459l149 -35v-41h-403v43l104 41l-258 379l-254 -379l101 -41v-43h-398z" />
<glyph unicode="y" horiz-adv-x="1167" d="M-37 1012v47h459v-41l-170 -37l364 -987l320 981l-170 39v45h459v-41l-150 -35l-477 -1339l182 -37v-45h-467v43l158 33l84 243l-442 1102z" />
<glyph unicode="z" horiz-adv-x="978" d="M94 0v109l670 860h-567l-39 -162h-45l-15 252h838l2 -86l-672 -864h551l37 161h43l25 -270h-828z" />
<glyph unicode="{" horiz-adv-x="915" d="M135 508v94q168 67 178 209v317q0 109 35.5 191t97 129.5t135.5 70.5t160 23h140v-96h-119q-20 0 -35.5 -0.5t-49.5 -5t-60 -12t-58.5 -24t-53.5 -39.5t-35.5 -59.5t-14.5 -82.5v-410q0 -75 -33 -141.5t-96 -77.5v-78q67 -13 98 -72t31 -137v-430q0 -220 301 -219h6h119 v-94h-140q-87 0 -160 22t-135 70t-97.5 134t-35.5 204v313q0 23 -4 43t-12.5 36.5t-17 30t-23.5 25t-24 19t-27 16.5l-25 12.5t-25 10.5t-20 8z" />
<glyph unicode="|" horiz-adv-x="468" d="M205 -479v2136h96v-2136h-96z" />
<glyph unicode="}" horiz-adv-x="909" d="M76 -342h119q128 0 196 31q113 53 113 188v430q0 80 31 137t98 70v78q-46 7 -76.5 45.5t-41.5 83t-11 92.5v410q0 223 -309 223h-119v96h139q87 0 162 -23t136 -70.5t96.5 -129.5t35.5 -191v-315q0 -153 182 -211l-4 -96q-70 -28 -122 -80t-56 -119v-313 q0 -95 -23.5 -169.5t-63.5 -123t-96 -80t-116.5 -44.5t-130.5 -13h-139v94z" />
<glyph unicode="~" horiz-adv-x="1228" d="M217 485q51 24 75 34t62.5 20t73.5 10q96 0 209 -28.5t221 -28.5q104 0 203 45v-93q-137 -57 -203 -57q-102 0 -218 27.5t-216 27.5q-69 0 -203 -39q0 20 -2 43t-2 39z" />
<glyph unicode="&#xa1;" horiz-adv-x="581" d="M217 885v172h174v-172h-174zM225 -4l51 602h43l52 -602v-436h-146v436z" />
<glyph unicode="&#xa2;" horiz-adv-x="1042" d="M109 539q0 259 135 401.5t346 142.5v154h67v-152q187 -16 342 -77l-16 -97q-56 24 -94 38.5t-101 29.5t-131 22v-944q210 19 361 93q0 -103 2 -121q-77 -22 -111 -30.5t-102 -18.5t-150 -13v-221h-67v225q-241 31 -361 170.5t-120 397.5zM246 541q0 -216 91.5 -336 t252.5 -144v943q-60 0 -120.5 -33t-110.5 -91t-81.5 -147t-31.5 -190v-2z" />
<glyph unicode="&#xa3;" d="M100 -2v88q228 34 228 332v317h-101v92h101v357q0 89 33.5 157.5t90 109t124.5 61t143 20.5q147 0 229 -53v-88q-109 51 -213 51q-62 0 -108 -17.5t-72.5 -44.5t-42 -69t-20.5 -82t-5 -92v-310h232v-92h-232v-317q0 -79 -44 -158.5t-121 -171.5l362 -20q200 0 303.5 87.5 t116.5 243.5v4q0 172 -107 279q10 13 29.5 32t24.5 25q129 -125 129 -336q0 -106 -39.5 -187.5t-107.5 -129t-153.5 -70t-183.5 -18.5h-596z" />
<glyph unicode="&#xa5;" horiz-adv-x="1413" d="M49 1497h170l502 -825q301 479 524 825h172l-543 -831h357v-84h-420v-346h420v-82h-420v-154h-154v154h-415v82h415v346h-415v84h350z" />
<glyph unicode="&#xa7;" horiz-adv-x="1179" d="M135 547q0 41 8.5 87.5t32.5 102t60 100.5t97 79t138 42q-91 45 -147 117t-56 139q0 51 8.5 93t33 84t64 70.5t106.5 46.5t155 18q210 0 395 -94l-20 -215q-10 0 -21 1t-18 1l-37 149q-221 70 -299 70q-48 0 -83.5 -6.5t-69.5 -24.5t-52 -55.5t-18 -94.5 q0 -111 85.5 -194.5t266.5 -122.5q70 -16 124.5 -42.5t100.5 -71t71 -115.5t25 -164q0 -159 -81 -252.5t-259 -136.5q118 -39 196.5 -115.5t78.5 -169.5q0 -146 -117 -227.5t-303 -81.5q-231 0 -418 112q3 36 7.5 115.5t7.5 116.5h43l34 -148q75 -42 163.5 -68t162.5 -26 q60 0 106 8.5t87 30t63.5 64t22.5 104.5q0 101 -116.5 186.5t-266.5 85.5q-179 0 -270 111.5t-91 290.5zM276 590q0 -74 4 -120t18 -90.5t39 -68t69 -42.5t106.5 -26t153.5 -7q113 0 194.5 86.5t81.5 224.5q0 47 -6 84.5t-15.5 67t-27.5 52t-37 38.5t-50 27.5t-58.5 18.5 t-71.5 12t-81 7t-93 4q-87 0 -156.5 -82t-69.5 -186z" />
<glyph unicode="&#xa8;" horiz-adv-x="454" d="M-41 1298v166h135v-166h-135zM-41 1298v166h135v-166h-135zM379 1298v166h137v-166h-137zM379 1298v166h137v-166h-137z" />
<glyph unicode="&#xaa;" horiz-adv-x="567" d="M80 1077q0 69 38 111.5t124 42.5q84 0 109 3.5t44 22.5q0 70 -11.5 103.5t-34.5 44t-70 10.5q-56 0 -119 -18q-5 -16 -17 -76h-22l-6 106q72 35 170 35q82 0 129 -43.5t47 -158.5v-291l80 -19v-22h-117l-31 63q-78 -69 -166 -69q-147 0 -147 155zM147 1075 q0 -54 31.5 -82t81.5 -28q74 0 135 61l2 176q-63 -14 -141 -14q-24 0 -38 -2t-33 -11.5t-28.5 -34.5t-9.5 -65z" />
<glyph unicode="&#xab;" horiz-adv-x="1150" d="M133 578q0 24 25 40l348 248q0 -61 -10 -78q-7 -9 -15 -14l-276 -196q38 -29 143 -103t125 -86q15 -12 23 -31.5t9 -33t1 -37.5l-346 250q-27 15 -27 41zM641 578q0 24 25 40l348 248q0 -61 -10 -78q-6 -9 -15 -14l-276 -196q38 -29 143 -103t125 -86q15 -12 23 -31.5 t9 -33t1 -37.5l-346 250q-27 15 -27 41z" />
<glyph unicode="&#xad;" horiz-adv-x="815" d="M137 518v105h576v-105h-576z" />
<glyph unicode="&#xb0;" horiz-adv-x="819" d="M139 1210q0 139 74 212t211 75q150 -1 218.5 -72t68.5 -215q0 -130 -69.5 -207t-217.5 -77q-285 0 -285 284zM197 1212q0 -42 7 -77.5t17 -60.5t27.5 -44.5t31 -31.5t36 -20.5t34 -12t32.5 -5.5t24.5 -2h17.5q12 0 23.5 0.5t37 6t46 14t46 27.5t42.5 45t28.5 67.5 t11.5 93.5t-12 94t-28.5 68t-42 44.5t-45.5 27t-46.5 13t-36.5 5t-24 0.5t-25 -0.5t-36 -5.5t-44.5 -13.5t-43.5 -27.5t-40 -44.5t-27 -67t-11 -93.5z" />
<glyph unicode="&#xb2;" horiz-adv-x="753" d="M94 612q2 71 20 130t45.5 101.5t72 81.5t87.5 66t103 58q160 78 160 213q0 71 -49 119.5t-148 52.5q-118 0 -207 -105q0 -2 -6.5 -34t-11.5 -48h-25q-6 49 -10 129q9 12 39.5 36.5t93.5 51.5t125 27q136 0 206 -64.5t70 -164.5q0 -181 -217 -285q-240 -119 -247 -307h430 l24 98h27l12 -156h-594z" />
<glyph unicode="&#xb3;" horiz-adv-x="739" d="M59 647q4 84 11 135h24l21 -90q144 -41 229 -41q74 0 129.5 23t83.5 58t41.5 68.5t13.5 63.5q0 68 -64.5 126.5t-174.5 58.5h-103v57h103q105 0 149.5 47.5t44.5 122.5q0 63 -48 110.5t-140 47.5q-90 0 -242 -62l-18 -84q-8 0 -16 -1t-11 -1l-8 127q160 78 295 78 q116 0 196 -50t80 -149q0 -81 -50 -137.5t-126 -62.5q104 -12 169 -74.5t65 -153.5q0 -109 -98.5 -185.5t-262.5 -76.5q-200 0 -293 45z" />
<glyph unicode="&#xb4;" horiz-adv-x="454" d="M182 1309q10 21 101 229h163q-121 -163 -178 -229h-86z" />
<glyph unicode="&#xb7;" horiz-adv-x="593" d="M217 627v174h174v-174h-174z" />
<glyph unicode="&#xb8;" horiz-adv-x="501" d="M125 -401q53 -21 98 -21q19 0 36.5 3.5t39.5 13.5t35.5 35t13.5 61q0 123 -125 123q-39 0 -76 -9q7 6 20.5 31.5t38.5 75t46 88.5h14l-84 -160q63 8 112 -3t75.5 -35.5t39.5 -52.5t13 -58q0 -67 -44 -104.5t-122 -45.5q-79 0 -131 17v41z" />
<glyph unicode="&#xb9;" horiz-adv-x="649" d="M231 1409v33q11 8 36.5 22.5t37.5 24.5h84v-719l82 -18v-23h-233v23l81 18v662q-42 -3 -88 -23z" />
<glyph unicode="&#xba;" horiz-adv-x="819" d="M139 1210q0 139 74 212t211 75q150 -1 218.5 -72t68.5 -215q0 -130 -69.5 -207t-217.5 -77q-285 0 -285 284zM197 1212q0 -42 7 -77.5t17 -60.5t27.5 -44.5t31 -31.5t36 -20.5t34 -12t32.5 -5.5t24.5 -2h17.5q12 0 23.5 0.5t37 6t46 14t46 27.5t42.5 45t28.5 67.5 t11.5 93.5t-12 94t-28.5 68t-42 44.5t-45.5 27t-46.5 13t-36.5 5t-24 0.5t-25 -0.5t-36 -5.5t-44.5 -13.5t-43.5 -27.5t-40 -44.5t-27 -67t-11 -93.5z" />
<glyph unicode="&#xbb;" horiz-adv-x="1136" d="M162 287q0 24 1 37.5t9 33t23 31.5q20 12 125 86t143 103l-277 196q-4 2 -7.5 5t-6 8t-4.5 8.5t-3 10t-2 10.5t-1 12v12v13.5v12.5l348 -248q25 -16 25 -40q0 -26 -27 -41zM670 287q0 25 1 38t8.5 32.5t22.5 31.5q21 12 126 86t143 103l-277 196q-4 2 -7.5 5t-6 8 t-4.5 8.5t-3 10t-2 10.5t-1 12v12v13.5v12.5l348 -248q24 -15 24 -40q0 -27 -26 -41z" />
<glyph unicode="&#xbf;" horiz-adv-x="1191" d="M184 -115q0 51 15 97.5t33.5 78.5t56 71t60.5 58t69 56q56 43 90 73.5t75 76.5t63 98t28 112h82q-18 -249 -236 -409q-46 -36 -72 -60t-57.5 -63.5t-46 -86t-14.5 -102.5q0 -118 88.5 -187t271.5 -69q55 0 143 16.5t152 37.5l-27 284h43l82 -379q-168 -63 -393 -63 q-149 0 -259.5 35.5t-178.5 118t-68 206.5zM616 887v172h175v-172h-175z" />
<glyph unicode="&#xc0;" horiz-adv-x="1345" d="M-80 0q0 10 1 22t1 19l144 35l516 1308q-65 14 -164 41v41h409l490 -1390q26 -4 76 -17.5t69 -17.5q0 -13 1 -24t1 -17h-473q0 8 1 22t1 21l172 39l-147 475h-610l-193 -473q29 -8 92.5 -23.5t79.5 -19.5q0 -13 1 -24t1 -17h-469zM426 643h565l-274 743zM541 1946h159 l103 -230h-86z" />
<glyph unicode="&#xc1;" horiz-adv-x="1345" d="M-80 0q0 10 1 22t1 19l144 35l516 1308q-65 14 -164 41v41h409l490 -1390q26 -4 76 -17.5t69 -17.5q0 -13 1 -24t1 -17h-473q0 8 1 22t1 21l172 39l-147 475h-610l-193 -473q29 -8 92.5 -23.5t79.5 -19.5q0 -13 1 -24t1 -17h-469zM426 643h565l-274 743zM541 1716 q23 48 58.5 132.5t41.5 97.5h164q-126 -170 -178 -230h-86z" />
<glyph unicode="&#xc2;" horiz-adv-x="1345" d="M-80 0q0 10 1 22t1 19l144 35l516 1308q-65 14 -164 41v41h409l490 -1390q26 -4 76 -17.5t69 -17.5q0 -13 1 -24t1 -17h-473q0 8 1 22t1 21l172 39l-147 475h-610l-193 -473q29 -8 92.5 -23.5t79.5 -19.5q0 -13 1 -24t1 -17h-469zM414 1688l211 264h94l211 -264h-88 l-170 221l-170 -221h-88zM426 643h565l-274 743z" />
<glyph unicode="&#xc3;" horiz-adv-x="1345" d="M-80 0q0 10 1 22t1 19l144 35l516 1308q-65 14 -164 41v41h409l490 -1390q26 -4 76 -17.5t69 -17.5q0 -13 1 -24t1 -17h-473q0 8 1 22t1 21l172 39l-147 475h-610l-193 -473q29 -8 92.5 -23.5t79.5 -19.5q0 -13 1 -24t1 -17h-469zM387 1851q26 41 117 41 q54 0 160.5 -28.5t164.5 -28.5q82 0 129 20v-77q-59 -47 -127 -47q-61 0 -165 26.5t-166 26.5q-58 0 -111 -21zM426 643h565l-274 743z" />
<glyph unicode="&#xc4;" horiz-adv-x="1345" d="M-80 0q0 10 1 22t1 19l144 35l516 1308q-65 14 -164 41v41h409l490 -1390q26 -4 76 -17.5t69 -17.5q0 -13 1 -24t1 -17h-473q0 8 1 22t1 21l172 39l-147 475h-610l-193 -473q29 -8 92.5 -23.5t79.5 -19.5q0 -13 1 -24t1 -17h-469zM393 1706v166h135v-166h-135zM393 1706 v166h135v-166h-135zM426 643h565l-274 743zM813 1706v166h137v-166h-137zM813 1706v166h137v-166h-137z" />
<glyph unicode="&#xc5;" horiz-adv-x="1345" d="M-80 0q0 10 1 22t1 19l144 35l516 1308q-65 14 -164 41v41h409l490 -1390q26 -4 76 -17.5t69 -17.5q0 -13 1 -24t1 -17h-473q0 8 1 22t1 21l172 39l-147 475h-610l-193 -473q29 -8 92.5 -23.5t79.5 -19.5q0 -13 1 -24t1 -17h-469zM422 1731q0 139 74 211.5t211 74.5 q150 -1 218 -71.5t68 -214.5q0 -130 -69.5 -207.5t-216.5 -77.5q-285 0 -285 285zM426 643h565l-274 743zM479 1733q0 -54 11.5 -96.5t27 -68.5t41 -44.5t43 -27t45.5 -13t35.5 -4.5h24.5q12 0 23.5 0.5t37 6t46 14t46 27.5t42.5 45t28.5 67.5t11.5 93.5t-12 94t-28.5 68 t-42 44.5t-45.5 27t-46.5 13t-36.5 5t-24 0.5t-25 -0.5t-36 -5.5t-44.5 -13.5t-44 -27.5t-40.5 -44.5t-27 -67t-11 -93.5z" />
<glyph unicode="&#xc6;" horiz-adv-x="2152" d="M-23 0v41l144 35l1018 1390h915q-5 -60 -9.5 -157t-6.5 -129h-41l-35 200h-621q0 -102 2.5 -296.5t2.5 -295.5h522v-88h-522l2 -612h682l34 158h39v-246h-899v559h-604l-356 -473q18 -3 188 -45v-41h-455zM649 645h555v762z" />
<glyph unicode="&#xc7;" horiz-adv-x="1433" d="M141 725q0 170 49 311t142 244t236.5 160t324.5 57q201 0 393 -65q-3 -48 -11 -132t-11 -126h-39l-35 174q-15 5 -57 18t-53.5 16.5t-42.5 11.5t-47.5 10t-43 4.5t-53.5 2.5q-41 0 -89.5 -10t-106 -33.5t-112.5 -59t-107 -90.5t-91 -123t-63.5 -162.5t-26.5 -203.5 q7 -128 38.5 -233.5t75.5 -173t103 -118.5t111.5 -77.5t111 -42t93 -19.5t63.5 -4q200 0 407 160v-141q-60 -40 -173.5 -79.5t-233.5 -43.5q-182 0 -327.5 60.5t-237 166t-139.5 243.5t-48 298zM698 -401q52 -21 99 -21q19 0 36.5 3.5t39.5 13.5t35.5 35t13.5 61 q0 123 -125 123q-39 0 -76 -9q7 6 20 31.5t37.5 74.5t46.5 89h15l-84 -160q63 8 111.5 -3t75 -35.5t39.5 -52.5t13 -58q0 -67 -44 -104.5t-122 -45.5q-79 0 -131 17v41z" />
<glyph unicode="&#xc8;" horiz-adv-x="1204" d="M55 0v43l160 37l2 1304l-162 37v43h1012l-23 -286h-38l-35 200h-625v-590h533v-88h-533v-612h692l35 158h39v-246h-1057zM471 1946h160l102 -230h-86z" />
<glyph unicode="&#xc9;" horiz-adv-x="1204" d="M55 0v43l160 37l2 1304l-162 37v43h1012l-23 -286h-38l-35 200h-625v-590h533v-88h-533v-612h692l35 158h39v-246h-1057zM469 1716q23 48 58.5 132.5t41.5 97.5h164q-126 -170 -178 -230h-86z" />
<glyph unicode="&#xca;" horiz-adv-x="1204" d="M55 0v43l160 37l2 1304l-162 37v43h1012l-23 -286h-38l-35 200h-625v-590h533v-88h-533v-612h692l35 158h39v-246h-1057zM344 1688l211 264h94l211 -264h-88l-170 221l-170 -221h-88z" />
<glyph unicode="&#xcb;" horiz-adv-x="1204" d="M55 0v43l160 37l2 1304l-162 37v43h1012l-23 -286h-38l-35 200h-625v-590h533v-88h-533v-612h692l35 158h39v-246h-1057zM324 1706v166h135v-166h-135zM324 1706v166h135v-166h-135zM743 1706v166h138v-166h-138zM743 1706v166h138v-166h-138z" />
<glyph unicode="&#xcc;" horiz-adv-x="571" d="M80 0v43l153 37v1306q-23 4 -75.5 17t-75.5 18v45h438v-43l-155 -37v-1308l157 -35v-43h-442zM154 1946h159l103 -230h-86z" />
<glyph unicode="&#xcd;" horiz-adv-x="571" d="M80 0v43l153 37v1306q-23 4 -75.5 17t-75.5 18v45h438v-43l-155 -37v-1308l157 -35v-43h-442zM162 1716q23 48 58.5 132.5t41.5 97.5h164q-126 -170 -178 -230h-86z" />
<glyph unicode="&#xce;" horiz-adv-x="571" d="M27 1688l211 264h94l211 -264h-88l-170 221l-170 -221h-88zM80 0v43l153 37v1306q-23 4 -75.5 17t-75.5 18v45h438v-43l-155 -37v-1308l157 -35v-43h-442z" />
<glyph unicode="&#xcf;" horiz-adv-x="571" d="M6 1706v166h135v-166h-135zM6 1706v166h135v-166h-135zM80 0v43l153 37v1306q-23 4 -75.5 17t-75.5 18v45h438v-43l-155 -37v-1308l157 -35v-43h-442zM426 1706v166h137v-166h-137zM426 1706v166h137v-166h-137z" />
<glyph unicode="&#xd1;" horiz-adv-x="1517" d="M45 0q0 8 1 22t1 21l158 37l2 1306l-158 37v43h332l838 -1308v1308h292v-43l-159 -37v-1308l161 -35v-43h-317l-854 1337l-2 -1255q89 -18 162 -39q0 -13 1 -25t1 -18h-459zM473 1851q26 41 117 41q54 0 160.5 -28.5t164.5 -28.5q82 0 129 20v-77q-59 -47 -126 -47 q-62 0 -166 26.5t-166 26.5q-58 0 -111 -21z" />
<glyph unicode="&#xd2;" horiz-adv-x="1728" d="M121 729q0 372 199.5 567t568.5 201q397 -6 583.5 -196.5t186.5 -571.5q0 -133 -26 -247t-85 -211.5t-147 -166t-218.5 -107t-293.5 -38.5q-207 0 -356.5 54.5t-238 158.5t-130 241t-43.5 316zM276 731q0 -110 17.5 -203t44.5 -158.5t69.5 -118.5t81.5 -85.5t92 -56 t90 -34.5t86.5 -17t70.5 -6.5t52 -0.5h9q33 0 63 1.5t98.5 15t124 37t123 74.5t113.5 120.5t77.5 181t31.5 250.5q0 109 -19 201.5t-48.5 157.5t-74.5 117t-87.5 84.5t-98 56.5t-95 35t-88.5 17t-70 6.5t-48 0.5h-4q-26 0 -47.5 -1t-68.5 -7t-86.5 -17.5t-92.5 -35.5 t-94.5 -56.5t-84.5 -85t-71.5 -117t-47 -156.5t-18.5 -200zM733 1946h160l102 -230h-86z" />
<glyph unicode="&#xd3;" horiz-adv-x="1728" d="M121 729q0 372 199.5 567t568.5 201q397 -6 583.5 -196.5t186.5 -571.5q0 -133 -26 -247t-85 -211.5t-147 -166t-218.5 -107t-293.5 -38.5q-207 0 -356.5 54.5t-238 158.5t-130 241t-43.5 316zM276 731q0 -110 17.5 -203t44.5 -158.5t69.5 -118.5t81.5 -85.5t92 -56 t90 -34.5t86.5 -17t70.5 -6.5t52 -0.5h9q33 0 63 1.5t98.5 15t124 37t123 74.5t113.5 120.5t77.5 181t31.5 250.5q0 109 -19 201.5t-48.5 157.5t-74.5 117t-87.5 84.5t-98 56.5t-95 35t-88.5 17t-70 6.5t-48 0.5h-4q-26 0 -47.5 -1t-68.5 -7t-86.5 -17.5t-92.5 -35.5 t-94.5 -56.5t-84.5 -85t-71.5 -117t-47 -156.5t-18.5 -200zM731 1716q23 48 58.5 132.5t41.5 97.5h164q-126 -170 -178 -230h-86z" />
<glyph unicode="&#xd4;" horiz-adv-x="1728" d="M121 729q0 372 199.5 567t568.5 201q397 -6 583.5 -196.5t186.5 -571.5q0 -133 -26 -247t-85 -211.5t-147 -166t-218.5 -107t-293.5 -38.5q-207 0 -356.5 54.5t-238 158.5t-130 241t-43.5 316zM276 731q0 -110 17.5 -203t44.5 -158.5t69.5 -118.5t81.5 -85.5t92 -56 t90 -34.5t86.5 -17t70.5 -6.5t52 -0.5h9q33 0 63 1.5t98.5 15t124 37t123 74.5t113.5 120.5t77.5 181t31.5 250.5q0 109 -19 201.5t-48.5 157.5t-74.5 117t-87.5 84.5t-98 56.5t-95 35t-88.5 17t-70 6.5t-48 0.5h-4q-26 0 -47.5 -1t-68.5 -7t-86.5 -17.5t-92.5 -35.5 t-94.5 -56.5t-84.5 -85t-71.5 -117t-47 -156.5t-18.5 -200zM606 1688l211 264h94l211 -264h-88l-170 221l-170 -221h-88z" />
<glyph unicode="&#xd5;" horiz-adv-x="1728" d="M121 729q0 372 199.5 567t568.5 201q397 -6 583.5 -196.5t186.5 -571.5q0 -133 -26 -247t-85 -211.5t-147 -166t-218.5 -107t-293.5 -38.5q-207 0 -356.5 54.5t-238 158.5t-130 241t-43.5 316zM276 731q0 -110 17.5 -203t44.5 -158.5t69.5 -118.5t81.5 -85.5t92 -56 t90 -34.5t86.5 -17t70.5 -6.5t52 -0.5h9q33 0 63 1.5t98.5 15t124 37t123 74.5t113.5 120.5t77.5 181t31.5 250.5q0 109 -19 201.5t-48.5 157.5t-74.5 117t-87.5 84.5t-98 56.5t-95 35t-88.5 17t-70 6.5t-48 0.5h-4q-26 0 -47.5 -1t-68.5 -7t-86.5 -17.5t-92.5 -35.5 t-94.5 -56.5t-84.5 -85t-71.5 -117t-47 -156.5t-18.5 -200zM578 1851q26 41 116 41q54 0 161 -28.5t165 -28.5q82 0 129 20v-77q-59 -47 -127 -47q-62 0 -166 26.5t-166 26.5q-58 0 -110 -21z" />
<glyph unicode="&#xd6;" horiz-adv-x="1728" d="M121 729q0 372 199.5 567t568.5 201q397 -6 583.5 -196.5t186.5 -571.5q0 -133 -26 -247t-85 -211.5t-147 -166t-218.5 -107t-293.5 -38.5q-207 0 -356.5 54.5t-238 158.5t-130 241t-43.5 316zM276 731q0 -110 17.5 -203t44.5 -158.5t69.5 -118.5t81.5 -85.5t92 -56 t90 -34.5t86.5 -17t70.5 -6.5t52 -0.5h9q33 0 63 1.5t98.5 15t124 37t123 74.5t113.5 120.5t77.5 181t31.5 250.5q0 109 -19 201.5t-48.5 157.5t-74.5 117t-87.5 84.5t-98 56.5t-95 35t-88.5 17t-70 6.5t-48 0.5h-4q-26 0 -47.5 -1t-68.5 -7t-86.5 -17.5t-92.5 -35.5 t-94.5 -56.5t-84.5 -85t-71.5 -117t-47 -156.5t-18.5 -200zM586 1706v166h135v-166h-135zM586 1706v166h135v-166h-135zM1006 1706v166h137v-166h-137zM1006 1706v166h137v-166h-137z" />
<glyph unicode="&#xd8;" horiz-adv-x="1687" d="M98 729q0 178 57 323.5t159.5 242.5t244 149.5t309.5 52.5q124 0 279 -29l16 39h39l-20 -49q235 -90 343.5 -267.5t108.5 -461.5q0 -168 -43 -304.5t-132.5 -242.5t-239.5 -164.5t-351 -58.5q-90 0 -268 29l-8 -29h-35l14 31q-126 42 -217.5 114t-146 168.5t-81 208.5 t-28.5 248zM256 731q0 -465 348 -643l264 664l242 618q-145 37 -244 37q-27 0 -48.5 -1t-69 -7t-86.5 -17.5t-92 -35.5t-94 -56.5t-84 -85t-71.5 -117t-46.5 -156.5t-18 -200zM639 78q23 -6 43.5 -11t40.5 -8t33 -4.5t33 -2.5t26.5 -1h28.5h24q24 0 44.5 1t68.5 7t88.5 17.5 t95.5 35.5t99 56.5t89.5 85t76 118t50 158t19.5 201.5q0 437 -356 629z" />
<glyph unicode="&#xd9;" horiz-adv-x="1509" d="M37 1421v45h461v-43l-162 -34l-4 -768q0 -42 1 -72.5t10 -93t24.5 -108.5t48.5 -102t78.5 -92.5t118 -61.5t163.5 -25q70 0 128.5 15.5t100.5 39t75 61t54 72t36 82.5t22 82t11 80.5t4.5 68t0.5 54.5v765l-161 35v45h456l-2 -43l-158 -34l-6 -768q0 -183 -23 -281 q-85 -371 -538 -371q-119 0 -212.5 26t-153 62.5t-102 100t-62.5 113.5t-31 130t-12.5 122.5t-1.5 115.5v747zM623 1946h159l103 -230h-86z" />
<glyph unicode="&#xda;" horiz-adv-x="1509" d="M37 1421v45h461v-43l-162 -34l-4 -768q0 -42 1 -72.5t10 -93t24.5 -108.5t48.5 -102t78.5 -92.5t118 -61.5t163.5 -25q70 0 128.5 15.5t100.5 39t75 61t54 72t36 82.5t22 82t11 80.5t4.5 68t0.5 54.5v765l-161 35v45h456l-2 -43l-158 -34l-6 -768q0 -183 -23 -281 q-85 -371 -538 -371q-119 0 -212.5 26t-153 62.5t-102 100t-62.5 113.5t-31 130t-12.5 122.5t-1.5 115.5v747zM623 1716q23 48 58.5 132.5t41.5 97.5h164q-126 -170 -178 -230h-86z" />
<glyph unicode="&#xdb;" horiz-adv-x="1509" d="M37 1421v45h461v-43l-162 -34l-4 -768q0 -42 1 -72.5t10 -93t24.5 -108.5t48.5 -102t78.5 -92.5t118 -61.5t163.5 -25q70 0 128.5 15.5t100.5 39t75 61t54 72t36 82.5t22 82t11 80.5t4.5 68t0.5 54.5v765l-161 35v45h456l-2 -43l-158 -34l-6 -768q0 -183 -23 -281 q-85 -371 -538 -371q-119 0 -212.5 26t-153 62.5t-102 100t-62.5 113.5t-31 130t-12.5 122.5t-1.5 115.5v747zM496 1688l211 264h94l211 -264h-88l-170 221l-170 -221h-88z" />
<glyph unicode="&#xdc;" horiz-adv-x="1509" d="M37 1421v45h461v-43l-162 -34l-4 -768q0 -42 1 -72.5t10 -93t24.5 -108.5t48.5 -102t78.5 -92.5t118 -61.5t163.5 -25q70 0 128.5 15.5t100.5 39t75 61t54 72t36 82.5t22 82t11 80.5t4.5 68t0.5 54.5v765l-161 35v45h456l-2 -43l-158 -34l-6 -768q0 -183 -23 -281 q-85 -371 -538 -371q-119 0 -212.5 26t-153 62.5t-102 100t-62.5 113.5t-31 130t-12.5 122.5t-1.5 115.5v747zM475 1706v166h135v-166h-135zM475 1706v166h135v-166h-135zM895 1706v166h137v-166h-137zM895 1706v166h137v-166h-137z" />
<glyph unicode="&#xdd;" horiz-adv-x="1454" d="M-14 1423v43h434v-41l-158 -30l479 -762l488 762l-146 30v41h428v-41l-139 -34l-559 -846v-465l158 -37v-43h-455v43l158 37v465l-547 846zM594 1716q23 48 58.5 132.5t41.5 97.5h164q-126 -170 -178 -230h-86z" />
<glyph unicode="&#xdf;" horiz-adv-x="1212" d="M23 0v43l159 39v840q0 89 2 143.5t10 128t24.5 117.5t46.5 93t73.5 75t108.5 43.5t149 17.5q55 0 107.5 -8.5t112 -34t103 -66.5t72.5 -112t29 -164q0 -53 -18 -109t-52 -106.5t-91 -86.5t-128 -44q144 -18 250 -130.5t106 -262.5q0 -108 -31.5 -188t-80.5 -125.5 t-120 -73.5t-137 -36.5t-145 -8.5q6 60 25 288h43l39 -176q248 85 248 324q0 37 -1 58.5t-8 54.5t-20 53.5t-38.5 48t-62 47t-91.5 41t-127 39.5v108q160 6 240.5 74.5t80.5 212.5q0 77 -25 132.5t-69 86t-96 44.5t-115 14q-71 0 -119 -15.5t-78 -44t-46 -81.5t-21.5 -115 t-5.5 -158v-1020h-303z" />
<glyph unicode="&#xe0;" horiz-adv-x="1044" d="M94 305q0 65 16.5 118.5t53 99t103.5 70.5t159 25q168 0 219.5 8t93.5 48q0 88 -8.5 145t-23.5 93t-46 54t-66 23.5t-95 5.5q-136 0 -242 -34q-25 -123 -33 -158h-47q-3 39 -7 110.5t-7 110.5q143 70 348 70q52 0 95.5 -7.5t85.5 -25t74 -49t56.5 -76t37.5 -109.5 t13 -147v-596l164 -39v-45h-241l-64 131q-45 -38 -85 -65t-110 -52.5t-141 -25.5q-148 0 -225.5 81t-77.5 236zM231 303q0 -112 65.5 -169.5t164.5 -57.5q147 0 280 127l4 360q-59 -15 -114 -23t-87 -9t-91 -1h-32.5t-32.5 -2t-34 -6t-31 -11.5t-30 -18.5t-24.5 -28.5 t-20.5 -39.5t-12 -53t-5 -68zM391 1538h160l102 -229h-86z" />
<glyph unicode="&#xe1;" horiz-adv-x="1044" d="M94 305q0 65 16.5 118.5t53 99t103.5 70.5t159 25q168 0 219.5 8t93.5 48q0 88 -8.5 145t-23.5 93t-46 54t-66 23.5t-95 5.5q-136 0 -242 -34q-25 -123 -33 -158h-47q-3 39 -7 110.5t-7 110.5q143 70 348 70q52 0 95.5 -7.5t85.5 -25t74 -49t56.5 -76t37.5 -109.5 t13 -147v-596l164 -39v-45h-241l-64 131q-45 -38 -85 -65t-110 -52.5t-141 -25.5q-148 0 -225.5 81t-77.5 236zM231 303q0 -112 65.5 -169.5t164.5 -57.5q147 0 280 127l4 360q-59 -15 -114 -23t-87 -9t-91 -1h-32.5t-32.5 -2t-34 -6t-31 -11.5t-30 -18.5t-24.5 -28.5 t-20.5 -39.5t-12 -53t-5 -68zM389 1309q17 36 33.5 73.5t35.5 82.5t31 73h164q-121 -163 -178 -229h-86z" />
<glyph unicode="&#xe2;" horiz-adv-x="1044" d="M94 305q0 65 16.5 118.5t53 99t103.5 70.5t159 25q168 0 219.5 8t93.5 48q0 88 -8.5 145t-23.5 93t-46 54t-66 23.5t-95 5.5q-136 0 -242 -34q-25 -123 -33 -158h-47q-3 39 -7 110.5t-7 110.5q143 70 348 70q52 0 95.5 -7.5t85.5 -25t74 -49t56.5 -76t37.5 -109.5 t13 -147v-596l164 -39v-45h-241l-64 131q-45 -38 -85 -65t-110 -52.5t-141 -25.5q-148 0 -225.5 81t-77.5 236zM231 303q0 -112 65.5 -169.5t164.5 -57.5q147 0 280 127l4 360q-59 -15 -114 -23t-87 -9t-91 -1h-32.5t-32.5 -2t-34 -6t-31 -11.5t-30 -18.5t-24.5 -28.5 t-20.5 -39.5t-12 -53t-5 -68zM264 1280l211 264h94l211 -264h-88l-170 221l-170 -221h-88z" />
<glyph unicode="&#xe3;" horiz-adv-x="1044" d="M94 305q0 65 16.5 118.5t53 99t103.5 70.5t159 25q168 0 219.5 8t93.5 48q0 88 -8.5 145t-23.5 93t-46 54t-66 23.5t-95 5.5q-136 0 -242 -34q-25 -123 -33 -158h-47q-3 39 -7 110.5t-7 110.5q143 70 348 70q52 0 95.5 -7.5t85.5 -25t74 -49t56.5 -76t37.5 -109.5 t13 -147v-596l164 -39v-45h-241l-64 131q-45 -38 -85 -65t-110 -52.5t-141 -25.5q-148 0 -225.5 81t-77.5 236zM231 303q0 -112 65.5 -169.5t164.5 -57.5q147 0 280 127l4 360q-59 -15 -114 -23t-87 -9t-91 -1h-32.5t-32.5 -2t-34 -6t-31 -11.5t-30 -18.5t-24.5 -28.5 t-20.5 -39.5t-12 -53t-5 -68zM236 1444q26 41 116 41q54 0 161 -29t165 -29q80 0 129 21v-78q-59 -47 -127 -47q-62 0 -166.5 26.5t-165.5 26.5q-60 0 -110 -20z" />
<glyph unicode="&#xe4;" horiz-adv-x="1044" d="M94 305q0 65 16.5 118.5t53 99t103.5 70.5t159 25q168 0 219.5 8t93.5 48q0 88 -8.5 145t-23.5 93t-46 54t-66 23.5t-95 5.5q-136 0 -242 -34q-25 -123 -33 -158h-47q-3 39 -7 110.5t-7 110.5q143 70 348 70q52 0 95.5 -7.5t85.5 -25t74 -49t56.5 -76t37.5 -109.5 t13 -147v-596l164 -39v-45h-241l-64 131q-45 -38 -85 -65t-110 -52.5t-141 -25.5q-148 0 -225.5 81t-77.5 236zM231 303q0 -112 65.5 -169.5t164.5 -57.5q147 0 280 127l4 360q-59 -15 -114 -23t-87 -9t-91 -1h-32.5t-32.5 -2t-34 -6t-31 -11.5t-30 -18.5t-24.5 -28.5 t-20.5 -39.5t-12 -53t-5 -68zM244 1298v166h135v-166h-135zM244 1298v166h135v-166h-135zM664 1298v166h137v-166h-137zM664 1298v166h137v-166h-137z" />
<glyph unicode="&#xe5;" horiz-adv-x="1044" d="M94 305q0 65 16.5 118.5t53 99t103.5 70.5t159 25q168 0 219.5 8t93.5 48q0 88 -8.5 145t-23.5 93t-46 54t-66 23.5t-95 5.5q-136 0 -242 -34q-25 -123 -33 -158h-47q-3 39 -7 110.5t-7 110.5q143 70 348 70q52 0 95.5 -7.5t85.5 -25t74 -49t56.5 -76t37.5 -109.5 t13 -147v-596l164 -39v-45h-241l-64 131q-45 -38 -85 -65t-110 -52.5t-141 -25.5q-148 0 -225.5 81t-77.5 236zM231 303q0 -112 65.5 -169.5t164.5 -57.5q147 0 280 127l4 360q-59 -15 -114 -23t-87 -9t-91 -1h-32.5t-32.5 -2t-34 -6t-31 -11.5t-30 -18.5t-24.5 -28.5 t-20.5 -39.5t-12 -53t-5 -68zM236 1210q0 140 73.5 212.5t210.5 74.5q150 -1 218.5 -72t68.5 -215q0 -130 -69.5 -207t-217.5 -77q-284 0 -284 284zM293 1212q0 -42 7 -77.5t17 -60.5t27.5 -44.5t31 -31.5t36 -20.5t34 -12t32.5 -5.5t24.5 -2h17.5q12 0 23.5 0.5t37 6 t46.5 14t46 27.5t42.5 45t29 67.5t11.5 93.5t-12 94t-28.5 68t-42.5 44.5t-45.5 27t-46.5 13t-37 5t-24 0.5t-25 -0.5t-36 -5.5t-44.5 -13.5t-43.5 -27.5t-40 -44.5t-27 -67t-11 -93.5z" />
<glyph unicode="&#xe6;" horiz-adv-x="1732" d="M82 461l754 71q0 77 -1 119t-7.5 101t-19.5 90t-37 68t-59.5 54.5t-88 29.5t-121.5 12q-58 0 -112 -17.5t-93.5 -45t-66.5 -53.5t-46 -52l-90 69q83 97 192 140t216 43q247 0 409 -189q168 189 398 189q436 0 422 -537q-410 0 -754 -33q0 -77 1 -118.5t7.5 -99.5 t19.5 -89t37 -67.5t59.5 -53.5t88 -29t121.5 -12q57 0 110.5 17.5t93 45t66 53.5t45.5 52q16 -12 43 -37t43 -37q-151 -178 -401 -178q-129 0 -228.5 47t-189.5 138q-164 -185 -389 -185q-430 0 -422 494zM203 371q2 -48 20.5 -98.5t52.5 -99.5t93.5 -80.5t134.5 -31.5 q70 0 125.5 25.5t88.5 64t56 90.5t32.5 97t12.5 92zM995 623l617 32q-6 69 -25 126.5t-53.5 107.5t-92 78t-132.5 28q-69 0 -124 -26t-88.5 -65t-57 -91t-33 -98.5t-11.5 -91.5z" />
<glyph unicode="&#xe7;" horiz-adv-x="1083" d="M127 541q0 153 37.5 261t111 171t172 91t232.5 28q182 0 336 -86q-3 -35 -7.5 -107.5t-7.5 -107.5h-43l-36 147q-135 59 -242 59q-70 0 -125.5 -9.5t-111.5 -39t-93 -78t-60.5 -131t-23.5 -194.5q0 -116 22 -202.5t59 -139t91.5 -85t112 -44t129.5 -11.5q94 0 192.5 27 t165.5 62l2 -119q-104 -33 -184.5 -48.5t-175.5 -15.5q-278 0 -415.5 140t-137.5 432zM504 -385q52 -21 98 -21q19 0 36.5 3.5t39.5 13.5t35.5 35t13.5 61q0 123 -125 123q-43 0 -76 -8q7 6 20.5 31t38.5 74.5t46 88.5h14l-84 -159q63 8 112 -3t75.5 -36t39.5 -53t13 -58 q0 -67 -44 -104t-122 -45q-82 0 -131 16v41z" />
<glyph unicode="&#xe8;" horiz-adv-x="1107" d="M109 506q0 283 118 433.5t363 150.5q423 0 420 -551l-766 2q0 -71 2 -118.5t9.5 -103.5t22 -92t39.5 -72.5t61.5 -57t89.5 -33.5t122 -13q77 0 145 30t105 64t63 72l90 -72q-151 -178 -403 -178q-134 0 -228 37t-148 110t-78.5 168t-26.5 224zM260 625l629 2 q-2 78 -19.5 142.5t-52 116.5t-92.5 80.5t-135 28.5q-69 0 -125.5 -20.5t-94 -55t-63 -82.5t-36.5 -100.5t-11 -111.5zM422 1538h160l102 -229h-86z" />
<glyph unicode="&#xe9;" horiz-adv-x="1107" d="M109 506q0 283 118 433.5t363 150.5q423 0 420 -551l-766 2q0 -71 2 -118.5t9.5 -103.5t22 -92t39.5 -72.5t61.5 -57t89.5 -33.5t122 -13q77 0 145 30t105 64t63 72l90 -72q-151 -178 -403 -178q-134 0 -228 37t-148 110t-78.5 168t-26.5 224zM260 625l629 2 q-2 78 -19.5 142.5t-52 116.5t-92.5 80.5t-135 28.5q-69 0 -125.5 -20.5t-94 -55t-63 -82.5t-36.5 -100.5t-11 -111.5zM422 1309q17 36 33.5 73.5t35.5 82.5t31 73h164q-121 -163 -178 -229h-86z" />
<glyph unicode="&#xea;" horiz-adv-x="1107" d="M109 506q0 283 118 433.5t363 150.5q423 0 420 -551l-766 2q0 -71 2 -118.5t9.5 -103.5t22 -92t39.5 -72.5t61.5 -57t89.5 -33.5t122 -13q77 0 145 30t105 64t63 72l90 -72q-151 -178 -403 -178q-134 0 -228 37t-148 110t-78.5 168t-26.5 224zM260 625l629 2 q-2 78 -19.5 142.5t-52 116.5t-92.5 80.5t-135 28.5q-69 0 -125.5 -20.5t-94 -55t-63 -82.5t-36.5 -100.5t-11 -111.5zM295 1280l211 264h94l211 -264h-88l-170 221l-170 -221h-88z" />
<glyph unicode="&#xeb;" horiz-adv-x="1107" d="M109 506q0 283 118 433.5t363 150.5q423 0 420 -551l-766 2q0 -71 2 -118.5t9.5 -103.5t22 -92t39.5 -72.5t61.5 -57t89.5 -33.5t122 -13q77 0 145 30t105 64t63 72l90 -72q-151 -178 -403 -178q-134 0 -228 37t-148 110t-78.5 168t-26.5 224zM260 625l629 2 q-2 78 -19.5 142.5t-52 116.5t-92.5 80.5t-135 28.5q-69 0 -125.5 -20.5t-94 -55t-63 -82.5t-36.5 -100.5t-11 -111.5zM274 1298v166h136v-166h-136zM274 1298v166h136v-166h-136zM694 1298v166h137v-166h-137zM694 1298v166h137v-166h-137z" />
<glyph unicode="&#xec;" horiz-adv-x="534" d="M45 0v43l164 39v895l-164 39v43h303v-977l164 -39v-43h-467zM135 1538h160l102 -229h-86z" />
<glyph unicode="&#xed;" horiz-adv-x="534" d="M45 0v43l164 39v895l-164 39v43h303v-977l164 -39v-43h-467zM141 1309q10 21 101 229h164q-115 -155 -179 -229h-86z" />
<glyph unicode="&#xee;" horiz-adv-x="534" d="M8 1280l211 264h94l211 -264h-88l-170 221l-170 -221h-88zM45 0v43l164 39v895l-164 39v43h303v-977l164 -39v-43h-467z" />
<glyph unicode="&#xef;" horiz-adv-x="534" d="M-12 1298v166h135v-166h-135zM-12 1298v166h135v-166h-135zM45 0v43l164 39v895l-164 39v43h303v-977l164 -39v-43h-467zM408 1298v166h137v-166h-137zM408 1298v166h137v-166h-137z" />
<glyph unicode="&#xf1;" horiz-adv-x="1218" d="M14 1014v45h287l27 -209q63 105 169 172.5t230 67.5q153 0 240.5 -113t87.5 -338v-557l164 -37v-45h-295v653q0 159 -67 246.5t-191 87.5q-139 0 -245 -94t-106 -217v-594l170 -39v-43h-467v45l164 33v899q-18 4 -77.5 17.5t-90.5 19.5zM324 1444q26 41 116 41 q54 0 161 -29t165 -29q80 0 129 21v-78q-59 -47 -127 -47q-62 0 -166 26.5t-166 26.5q-60 0 -110 -20z" />
<glyph unicode="&#xf2;" d="M123 535q0 277 113 417t374 140q113 0 201 -29t144.5 -79t93.5 -122t52 -152t15 -175q0 -144 -24 -246.5t-79.5 -177t-150.5 -110.5t-233 -36q-109 0 -196 30.5t-144.5 82.5t-95 125.5t-54 155.5t-16.5 176zM268 535q0 -93 12.5 -167.5t31.5 -123.5t50 -84.5t60 -54.5 t68.5 -30t69.5 -13.5t69 -2.5q50 0 81.5 3.5t84 28.5t83.5 71.5t55.5 142t24.5 230.5q0 75 -8 137t-19.5 106.5t-32 80t-39 58t-47.5 38.5t-49.5 24t-53 12.5t-50.5 5t-49 0.5h-6q-43 0 -65.5 -1t-63.5 -10t-65 -25.5t-54.5 -50t-47 -81.5t-28.5 -123t-12 -171zM467 1538 h160l102 -229h-86z" />
<glyph unicode="&#xf3;" d="M123 535q0 277 113 417t374 140q113 0 201 -29t144.5 -79t93.5 -122t52 -152t15 -175q0 -144 -24 -246.5t-79.5 -177t-150.5 -110.5t-233 -36q-109 0 -196 30.5t-144.5 82.5t-95 125.5t-54 155.5t-16.5 176zM268 535q0 -93 12.5 -167.5t31.5 -123.5t50 -84.5t60 -54.5 t68.5 -30t69.5 -13.5t69 -2.5q50 0 81.5 3.5t84 28.5t83.5 71.5t55.5 142t24.5 230.5q0 75 -8 137t-19.5 106.5t-32 80t-39 58t-47.5 38.5t-49.5 24t-53 12.5t-50.5 5t-49 0.5h-6q-43 0 -65.5 -1t-63.5 -10t-65 -25.5t-54.5 -50t-47 -81.5t-28.5 -123t-12 -171zM467 1309 q17 36 33.5 73.5t35.5 82.5t31 73h164q-121 -163 -178 -229h-86z" />
<glyph unicode="&#xf4;" d="M123 535q0 277 113 417t374 140q113 0 201 -29t144.5 -79t93.5 -122t52 -152t15 -175q0 -144 -24 -246.5t-79.5 -177t-150.5 -110.5t-233 -36q-109 0 -196 30.5t-144.5 82.5t-95 125.5t-54 155.5t-16.5 176zM268 535q0 -93 12.5 -167.5t31.5 -123.5t50 -84.5t60 -54.5 t68.5 -30t69.5 -13.5t69 -2.5q50 0 81.5 3.5t84 28.5t83.5 71.5t55.5 142t24.5 230.5q0 75 -8 137t-19.5 106.5t-32 80t-39 58t-47.5 38.5t-49.5 24t-53 12.5t-50.5 5t-49 0.5h-6q-43 0 -65.5 -1t-63.5 -10t-65 -25.5t-54.5 -50t-47 -81.5t-28.5 -123t-12 -171zM340 1280 l211 264h94l211 -264h-88l-170 221l-170 -221h-88z" />
<glyph unicode="&#xf5;" d="M123 535q0 277 113 417t374 140q113 0 201 -29t144.5 -79t93.5 -122t52 -152t15 -175q0 -144 -24 -246.5t-79.5 -177t-150.5 -110.5t-233 -36q-109 0 -196 30.5t-144.5 82.5t-95 125.5t-54 155.5t-16.5 176zM268 535q0 -93 12.5 -167.5t31.5 -123.5t50 -84.5t60 -54.5 t68.5 -30t69.5 -13.5t69 -2.5q50 0 81.5 3.5t84 28.5t83.5 71.5t55.5 142t24.5 230.5q0 75 -8 137t-19.5 106.5t-32 80t-39 58t-47.5 38.5t-49.5 24t-53 12.5t-50.5 5t-49 0.5h-6q-43 0 -65.5 -1t-63.5 -10t-65 -25.5t-54.5 -50t-47 -81.5t-28.5 -123t-12 -171zM313 1444 q26 41 117 41q54 0 161 -29t165 -29q79 0 129 21v-78q-59 -47 -127 -47q-62 0 -166 26.5t-166 26.5q-61 0 -111 -20z" />
<glyph unicode="&#xf6;" d="M123 535q0 277 113 417t374 140q113 0 201 -29t144.5 -79t93.5 -122t52 -152t15 -175q0 -144 -24 -246.5t-79.5 -177t-150.5 -110.5t-233 -36q-109 0 -196 30.5t-144.5 82.5t-95 125.5t-54 155.5t-16.5 176zM268 535q0 -93 12.5 -167.5t31.5 -123.5t50 -84.5t60 -54.5 t68.5 -30t69.5 -13.5t69 -2.5q50 0 81.5 3.5t84 28.5t83.5 71.5t55.5 142t24.5 230.5q0 75 -8 137t-19.5 106.5t-32 80t-39 58t-47.5 38.5t-49.5 24t-53 12.5t-50.5 5t-49 0.5h-6q-43 0 -65.5 -1t-63.5 -10t-65 -25.5t-54.5 -50t-47 -81.5t-28.5 -123t-12 -171zM319 1298 v166h136v-166h-136zM319 1298v166h136v-166h-136zM739 1298v166h138v-166h-138zM739 1298v166h138v-166h-138z" />
<glyph unicode="&#xf8;" d="M123 535q0 277 113 417t374 140q113 0 201 -29t144.5 -79t93.5 -122t52 -152t15 -175q0 -144 -24 -246.5t-79.5 -177t-150.5 -110.5t-233 -36q-109 0 -196 30.5t-144.5 82.5t-95 125.5t-54 155.5t-16.5 176zM268 535q0 -93 12.5 -167.5t31.5 -123.5t50 -84.5t60 -54.5 t68.5 -30t69.5 -13.5t69 -2.5q50 0 81.5 3.5t84 28.5t83.5 71.5t55.5 142t24.5 230.5q0 75 -8 137t-19.5 106.5t-32 80t-39 58t-47.5 38.5t-49.5 24t-53 12.5t-50.5 5t-49 0.5h-6q-43 0 -65.5 -1t-63.5 -10t-65 -25.5t-54.5 -50t-47 -81.5t-28.5 -123t-12 -171zM303 -41 l623 1133h32l-622 -1131q-16 0 -19 -1t-14 -1z" />
<glyph unicode="&#xf9;" horiz-adv-x="1216" d="M16 1016v43h293v-676q0 -166 52.5 -247t181.5 -81q92 0 177.5 42.5t143.5 127t58 191.5v567l-226 35v41h359v-977l164 -39v-43h-287l-25 199q-56 -108 -172 -172t-229 -64q-71 0 -129 23t-105 72.5t-73.5 136.5t-26.5 206v576zM477 1538h160l102 -229h-86z" />
<glyph unicode="&#xfa;" horiz-adv-x="1216" d="M16 1016v43h293v-676q0 -166 52.5 -247t181.5 -81q92 0 177.5 42.5t143.5 127t58 191.5v567l-226 35v41h359v-977l164 -39v-43h-287l-25 199q-56 -108 -172 -172t-229 -64q-71 0 -129 23t-105 72.5t-73.5 136.5t-26.5 206v576zM475 1309q17 36 33.5 73.5t35.5 82.5t31 73 h164q-121 -163 -178 -229h-86z" />
<glyph unicode="&#xfb;" horiz-adv-x="1216" d="M16 1016v43h293v-676q0 -166 52.5 -247t181.5 -81q92 0 177.5 42.5t143.5 127t58 191.5v567l-226 35v41h359v-977l164 -39v-43h-287l-25 199q-56 -108 -172 -172t-229 -64q-71 0 -129 23t-105 72.5t-73.5 136.5t-26.5 206v576zM350 1280l211 264h94l211 -264h-88 l-170 221l-170 -221h-88z" />
<glyph unicode="&#xfc;" horiz-adv-x="1216" d="M16 1016v43h293v-676q0 -166 52.5 -247t181.5 -81q92 0 177.5 42.5t143.5 127t58 191.5v567l-226 35v41h359v-977l164 -39v-43h-287l-25 199q-56 -108 -172 -172t-229 -64q-71 0 -129 23t-105 72.5t-73.5 136.5t-26.5 206v576zM330 1298v166h135v-166h-135zM330 1298v166 h135v-166h-135zM750 1298v166h137v-166h-137zM750 1298v166h137v-166h-137z" />
<glyph unicode="&#xfd;" horiz-adv-x="1167" d="M-37 1012v47h459v-41l-170 -37l364 -987l320 981l-170 39v45h459v-41l-150 -35l-477 -1339l182 -37v-45h-467v43l158 33l84 243l-442 1102zM451 1309q17 36 33.5 73.5t35.5 82.5t31 73h164q-121 -163 -178 -229h-86z" />
<glyph unicode="&#xff;" horiz-adv-x="1167" d="M-37 1012v47h459v-41l-170 -37l364 -987l320 981l-170 39v45h459v-41l-150 -35l-477 -1339l182 -37v-45h-467v43l158 33l84 243l-442 1102zM305 1298v166h135v-166h-135zM305 1298v166h135v-166h-135zM725 1298v166h137v-166h-137zM725 1298v166h137v-166h-137z" />
<glyph unicode="&#x178;" horiz-adv-x="1454" d="M-14 1423v43h434v-41l-158 -30l479 -762l488 762l-146 30v41h428v-41l-139 -34l-559 -846v-465l158 -37v-43h-455v43l158 37v465l-547 846zM449 1706v166h135v-166h-135zM449 1706v166h135v-166h-135zM868 1706v166h138v-166h-138zM868 1706v166h138v-166h-138z" />
<glyph unicode="&#x2c6;" horiz-adv-x="501" d="M-2 1280l211 264h94l211 -264h-88l-170 221l-170 -221h-88z" />
<glyph unicode="&#x2dc;" horiz-adv-x="454" d="M-37 1444q26 41 117 41q54 0 161 -29t165 -29q80 0 129 21v-78q-59 -47 -127 -47q-62 0 -166 26.5t-166 26.5q-61 0 -111 -20z" />
<glyph unicode="&#x2000;" horiz-adv-x="1008" />
<glyph unicode="&#x2001;" horiz-adv-x="2017" />
<glyph unicode="&#x2002;" horiz-adv-x="1008" />
<glyph unicode="&#x2003;" horiz-adv-x="2017" />
<glyph unicode="&#x2004;" horiz-adv-x="672" />
<glyph unicode="&#x2005;" horiz-adv-x="504" />
<glyph unicode="&#x2006;" horiz-adv-x="336" />
<glyph unicode="&#x2007;" horiz-adv-x="336" />
<glyph unicode="&#x2008;" horiz-adv-x="252" />
<glyph unicode="&#x2009;" horiz-adv-x="403" />
<glyph unicode="&#x200a;" horiz-adv-x="112" />
<glyph unicode="&#x2010;" horiz-adv-x="815" d="M137 518v105h576v-105h-576z" />
<glyph unicode="&#x2011;" horiz-adv-x="815" d="M137 518v105h576v-105h-576z" />
<glyph unicode="&#x2012;" horiz-adv-x="815" d="M137 518v105h576v-105h-576z" />
<glyph unicode="&#x2013;" horiz-adv-x="1024" d="M23 518v105h1024v-105h-1024z" />
<glyph unicode="&#x2014;" horiz-adv-x="2048" d="M293 518v105h1554v-105h-1554z" />
<glyph unicode="&#x2018;" horiz-adv-x="569" d="M186 1122q0 172 63 256.5t161 98.5v-80q-36 -4 -62.5 -17t-43 -37t-26.5 -48.5t-14.5 -62.5t-6 -67t-1.5 -73h129v-174h-180q-19 111 -19 204z" />
<glyph unicode="&#x2019;" horiz-adv-x="569" d="M182 920v73q32 3 57 15.5t40.5 26.5t26.5 42t16.5 47.5t8 58.5t3 58.5t0.5 63.5h-123v174h178q17 -136 17 -209q0 -303 -224 -350z" />
<glyph unicode="&#x201a;" horiz-adv-x="569" d="M188 -311q32 3 57 15.5t40.5 27.5t26.5 43t16.5 47.5t8 58t3 57.5t0.5 62h-123v172h178q17 -136 17 -203q0 -89 -18.5 -156.5t-51 -107t-70.5 -61t-84 -27.5v72z" />
<glyph unicode="&#x201c;" horiz-adv-x="901" d="M150 1122q0 88 19 156t52 108.5t71.5 62.5t82.5 28v-78q-31 -5 -55.5 -17t-40.5 -27t-27.5 -40t-17.5 -46t-9 -55t-3.5 -58t-0.5 -64h127v-174h-178q-20 109 -20 204zM580 1122q0 174 61.5 257.5t159.5 97.5v-78q-35 -5 -61.5 -18.5t-42.5 -37.5t-26 -48t-14.5 -62 t-6 -67t-1.5 -74h123v-174h-178q-14 140 -14 204z" />
<glyph unicode="&#x201d;" horiz-adv-x="909" d="M141 920v73q32 3 56.5 15t40.5 27.5t27.5 41.5t17 47.5t8.5 58t3.5 59.5t0.5 63h-123v174h178q17 -170 17 -209q0 -303 -226 -350zM569 920v73q32 3 57 15.5t40.5 26.5t26.5 42t16.5 47.5t8 58.5t3 58.5t0.5 63.5h-127v174h180q19 -97 19 -209q0 -310 -224 -350z" />
<glyph unicode="&#x201e;" horiz-adv-x="997" d="M180 -311q31 3 55.5 15.5t40 27.5t26.5 42t16.5 47.5t8 58t3 58.5t0.5 62h-121v172h176q18 -120 18 -203q0 -89 -18 -156.5t-50.5 -107t-70.5 -61t-84 -27.5v72zM645 -311q31 3 55 14.5t39.5 25.5t26 39.5t16 45t8 55.5t3 56.5t0.5 61.5v11q-17 0 -59 1t-62 1v172h178 q20 -120 20 -203q0 -91 -19 -158.5t-52.5 -106.5t-71 -60t-82.5 -27v72z" />
<glyph unicode="&#x2022;" horiz-adv-x="1024" d="M160 745q0 154 108 262.5t262 108.5t262.5 -108.5t108.5 -262.5t-108.5 -262t-262.5 -108t-262 108t-108 262z" />
<glyph unicode="&#x2026;" horiz-adv-x="1665" d="M190 -2v172h175v-172h-175zM793 -2v172h174v-172h-174zM1395 -2v172h172v-172h-172z" />
<glyph unicode="&#x202f;" horiz-adv-x="403" />
<glyph unicode="&#x2039;" horiz-adv-x="626" d="M141 578q0 24 25 40l348 248q0 -61 -10 -78q-7 -9 -15 -14l-276 -196q38 -29 143 -103t125 -86q15 -12 23 -31.5t9 -33t1 -37.5l-346 250q-27 15 -27 41z" />
<glyph unicode="&#x203a;" horiz-adv-x="636" d="M154 287q0 25 1 38t8.5 32.5t22.5 31.5q21 12 126 86t143 103l-277 196q-4 2 -7.5 5t-6 8t-4.5 8.5t-3 10t-2 10.5t-1 12v12v13.5v12.5l348 -248q24 -15 24 -40q0 -27 -26 -41z" />
<glyph unicode="&#x205f;" horiz-adv-x="504" />
<glyph unicode="&#x20ac;" horiz-adv-x="1259" d="M82 557l29 43h118q-6 124 -6.5 175t8.5 167h-149l27 43h124q114 590 590 590q70 0 148.5 -12.5t127.5 -25t124 -34.5v-127q-244 109 -400 109q-40 0 -73.5 -5.5t-77.5 -22t-81.5 -51.5t-74.5 -87.5t-67 -138t-50 -195.5h514l-14 -43h-500q-1 -26 -3.5 -72.5t-3 -66.5 t-0.5 -55t2 -69t7 -79h400q-4 -29 -10 -43h-383q24 -93 58.5 -168t68.5 -121t76.5 -79t72 -48t66 -23t47.5 -8.5t26 -0.5q222 0 416 157v-143q-181 -123 -416 -123q-210 0 -368 148t-224 409h-149z" />
<glyph unicode="&#x25fc;" horiz-adv-x="1054" d="M0 0v1055h1055v-1055h-1055z" />
</font>
</defs>
</svg>
